<?xml version="1.0" encoding="UTF-8"?>
<!-- Generator: visioncortex VTracer 0.6.3 -->
<svg version="1.1" xmlns="http://www.w3.org/2000/svg" width="1280" height="1280">
<path d="M0 0 C422.4 0 844.8 0 1280 0 C1280 422.4 1280 844.8 1280 1280 C857.6 1280 435.2 1280 0 1280 C0 857.6 0 435.2 0 0 Z " fill="#1E2021" transform="translate(0,0)"/>
<path d="M0 0 C0.81 0 1.62 0 2.46 0 C4.17 0 5.88 0.01 7.59 0.02 C10.18 0.04 12.77 0.05 15.36 0.04 C36.68 0.09 36.68 0.09 45.45 3.23 C48.08 3.75 50.69 4.22 53.33 4.67 C59.02 5.68 64.12 7.02 69.45 9.23 C74.02 10.7 78.64 12 83.27 13.29 C89.23 15.05 94.8 17.69 100.45 20.23 C100.45 19.57 100.45 18.91 100.45 18.23 C105.44 18.68 107 19.78 110.45 23.23 C112.68 24.34 114.95 25.28 117.23 26.24 C120.23 27.58 122.76 29.35 125.45 31.23 C127.28 32.45 129.11 33.66 130.95 34.86 C131.85 35.45 132.75 36.04 133.67 36.64 C136.37 38.32 136.37 38.32 139.3 39.07 C146.47 41.71 152.05 47.52 157.36 52.87 C157.97 53.48 158.58 54.09 159.21 54.71 C160.48 55.99 161.75 57.26 163.02 58.54 C164.97 60.5 166.93 62.45 168.89 64.39 C170.13 65.64 171.37 66.88 172.61 68.12 C173.2 68.7 173.78 69.29 174.39 69.89 C178.45 74 178.45 74 178.45 76.23 C179.03 76.46 179.61 76.68 180.2 76.92 C183.87 79.06 185.95 81.91 187.45 85.86 C188.27 88.37 188.27 88.37 190.52 89.73 C192.45 91.23 192.45 91.23 192.8 93.36 C193.7 97.31 195.65 100.3 197.77 103.73 C198.16 104.38 198.55 105.03 198.95 105.7 C201.23 109.44 203.69 112.83 206.45 116.23 C207.15 117.88 207.81 119.55 208.45 121.23 C209.4 122.9 210.35 124.57 211.32 126.23 C221.86 144.82 221.86 144.82 221.39 154.61 C221.16 160.5 222.33 165.62 223.77 171.29 C225.57 178.41 227.14 185.47 228.27 192.73 C228.39 193.51 228.51 194.3 228.64 195.1 C229.2 198.84 229.6 202.45 229.45 206.23 C230.11 206.56 230.77 206.89 231.45 207.23 C231.54 211.19 231.59 215.15 231.64 219.11 C231.67 220.21 231.69 221.32 231.72 222.46 C231.77 228.75 231.21 233.92 229.18 239.87 C227.75 244.51 227.63 249.35 227.28 254.17 C226.79 259.89 225.45 264.86 223.45 270.23 C222.41 273.36 222.14 276.01 221.89 279.29 C221.81 280.36 221.72 281.42 221.64 282.52 C221.53 284.08 221.45 285.66 221.45 287.23 C221.45 289.56 221.45 291.9 221.45 294.23 C220.79 294.23 220.13 294.23 219.45 294.23 C218.79 293.57 218.13 292.91 217.45 292.23 C217.51 293.41 217.58 294.58 217.64 295.79 C217.63 300.21 216.41 303.24 214.45 307.23 C213.47 309.56 212.49 311.89 211.52 314.21 C210.45 316.23 210.45 316.23 209 317.63 C207.39 319.3 206.56 320.72 205.59 322.81 C205.26 323.5 204.93 324.18 204.59 324.89 C203.92 326.31 203.25 327.74 202.59 329.16 C200.36 333.81 197.84 337.35 194.45 341.23 C193.11 343.26 193.11 343.26 192.14 345.11 C191.58 346.14 191.03 347.17 190.45 348.23 C191.11 347.9 191.77 347.57 192.45 347.23 C192.2 349.61 192.2 349.61 191.45 352.23 C189.52 353.29 189.52 353.29 187.45 354.23 C187.15 354.83 186.85 355.43 186.54 356.05 C185.31 358.52 183.89 360.05 181.94 362 C181.22 362.73 180.5 363.45 179.76 364.2 C178.6 365.36 178.6 365.36 177.41 366.54 C176.21 367.74 176.21 367.74 174.98 368.97 C173.28 370.67 171.58 372.37 169.88 374.07 C167.29 376.65 164.7 379.24 162.12 381.83 C160.47 383.49 158.82 385.14 157.16 386.79 C156.39 387.56 155.63 388.33 154.84 389.13 C150.6 393.32 146.34 396.83 141.45 400.23 C141.12 400.89 140.79 401.55 140.45 402.23 C139.79 402.23 139.13 402.23 138.45 402.23 C138.45 401.24 138.45 400.25 138.45 399.23 C138.04 399.68 137.62 400.12 137.2 400.58 C135.4 402.28 133.69 403.39 131.55 404.61 C130.43 405.25 130.43 405.25 129.29 405.9 C127.73 406.79 126.17 407.67 124.61 408.56 C123.5 409.2 123.5 409.2 122.36 409.86 C121.68 410.24 121 410.62 120.31 411.02 C118.41 412.17 118.41 412.17 116.92 413.77 C114.91 415.77 112.55 416.79 110.02 418 C107.47 419.22 104.96 420.51 102.45 421.81 C91.49 427.4 82.26 430.46 70.01 431.44 C63.5 432 57.86 433.36 51.64 435.35 C47.45 436.51 43.39 436.78 39.07 437.02 C35.7 437.29 32.67 438.24 29.45 439.23 C12.96 441.72 -3.41 439.98 -19.74 437.17 C-20.82 436.99 -21.9 436.8 -23.02 436.61 C-25.17 436.24 -27.32 435.86 -29.48 435.46 C-30.46 435.29 -31.45 435.12 -32.47 434.94 C-33.35 434.78 -34.23 434.62 -35.14 434.45 C-37.57 434.23 -39.24 434.48 -41.55 435.23 C-41.76 434.58 -41.97 433.94 -42.19 433.27 C-43.39 430.95 -43.39 430.95 -46.12 430.66 C-47.15 430.62 -48.18 430.58 -49.23 430.54 C-63.71 429.9 -75.11 424.39 -87.55 417.23 C-87.55 416.57 -87.55 415.91 -87.55 415.23 C-88.33 415.19 -89.11 415.15 -89.92 415.11 C-97.89 413.18 -104.56 407.58 -111.16 402.9 C-117.2 398.55 -117.2 398.55 -123.9 395.43 C-127.38 393.85 -129.83 391.47 -132.55 388.86 C-133.7 387.77 -134.85 386.68 -136 385.59 C-136.59 385.03 -137.18 384.47 -137.78 383.9 C-139.48 382.29 -141.2 380.72 -142.93 379.16 C-161.57 362.32 -161.57 362.32 -165.55 353.23 C-165.55 352.57 -165.55 351.91 -165.55 351.23 C-166.54 350.9 -167.53 350.57 -168.55 350.23 C-169.99 347.92 -171.29 345.64 -172.55 343.23 C-173.3 341.86 -174.05 340.49 -174.8 339.12 C-175.97 337 -177.13 334.88 -178.28 332.75 C-178.66 332.07 -179.04 331.38 -179.43 330.68 C-179.76 330.06 -180.1 329.45 -180.44 328.82 C-181.62 326.92 -181.62 326.92 -184.55 325.23 C-184.73 322.11 -184.73 322.11 -184.55 319.23 C-185.21 319.23 -185.87 319.23 -186.55 319.23 C-194.71 310.79 -200.76 295.72 -200.61 283.98 C-200.6 283.09 -200.59 282.2 -200.58 281.28 C-200.57 280.6 -200.56 279.93 -200.55 279.23 C-201.54 279.23 -202.53 279.23 -203.55 279.23 C-204.61 276.86 -204.61 276.86 -205.55 274.23 C-205.22 273.57 -204.89 272.91 -204.55 272.23 C-204.48 270.36 -204.46 268.48 -204.48 266.61 C-204.49 265.6 -204.5 264.6 -204.51 263.57 C-204.52 262.8 -204.53 262.02 -204.55 261.23 C-205.21 260.9 -205.87 260.57 -206.55 260.23 C-205.89 260.23 -205.23 260.23 -204.55 260.23 C-205.02 257.77 -205.5 255.31 -205.98 252.86 C-206.19 251.81 -206.19 251.81 -206.39 250.74 C-207.12 246.87 -207.12 246.87 -208.55 243.23 C-208.65 241.85 -208.69 240.47 -208.69 239.09 C-208.7 237.81 -208.7 237.81 -208.71 236.5 C-208.71 235.57 -208.71 234.65 -208.71 233.69 C-208.72 232.74 -208.72 231.78 -208.72 230.8 C-208.73 228.77 -208.73 226.75 -208.73 224.72 C-208.73 221.64 -208.75 218.56 -208.77 215.48 C-208.77 213.51 -208.78 211.54 -208.78 209.57 C-208.78 208.65 -208.79 207.74 -208.8 206.79 C-208.78 201.27 -208.11 196.54 -206.55 191.23 C-207.21 190.9 -207.87 190.57 -208.55 190.23 C-207.89 190.23 -207.23 190.23 -206.55 190.23 C-206.49 189.57 -206.43 188.9 -206.36 188.22 C-205.65 180.72 -205.65 180.72 -204.98 177.61 C-204.25 173.6 -203.7 168.93 -205.55 165.23 C-204.3 162.5 -202.97 159.9 -201.36 157.36 C-200.29 154.56 -200.58 152.19 -200.87 149.23 C-200.55 147.23 -200.55 147.23 -198.64 145.32 C-196.14 142.83 -195.73 141.14 -194.98 137.73 C-194.11 133.78 -193.09 131.38 -190.55 128.23 C-190.22 127.34 -189.89 126.46 -189.55 125.54 C-189.22 124.78 -188.89 124.02 -188.55 123.23 C-187.06 122.74 -187.06 122.74 -185.55 122.23 C-184.52 120.13 -184.52 120.13 -183.86 117.67 C-183.61 116.84 -183.36 116.02 -183.1 115.16 C-182.92 114.53 -182.73 113.89 -182.55 113.23 C-181.89 113.23 -181.23 113.23 -180.55 113.23 C-180.37 112.6 -180.18 111.98 -180 111.33 C-179.74 110.51 -179.49 109.7 -179.23 108.86 C-178.99 108.04 -178.75 107.23 -178.5 106.39 C-177.55 104.23 -177.55 104.23 -174.55 102.23 C-173.47 100.45 -173.47 100.45 -172.61 98.42 C-170.97 94.93 -168.98 92.23 -166.55 89.23 C-165.83 87.59 -165.15 85.92 -164.55 84.23 C-160.62 75.52 -152.28 68.84 -145.61 62.23 C-144.3 60.93 -144.3 60.93 -142.96 59.59 C-140.82 57.47 -138.69 55.35 -136.55 53.23 C-136.22 53.89 -135.89 54.55 -135.55 55.23 C-133.71 55.17 -133.71 55.17 -131.55 54.23 C-130.36 52.81 -129.17 51.38 -128.03 49.91 C-125.81 47.4 -123.16 45.6 -120.44 43.66 C-118.37 42.19 -118.37 42.19 -116.3 39.79 C-111.44 35.27 -105.33 31.95 -99.3 29.21 C-97.21 28.22 -97.21 28.22 -95.55 25.23 C-94.41 25.11 -93.28 24.98 -92.11 24.86 C-90.93 24.65 -89.76 24.44 -88.55 24.23 C-88.09 23.44 -87.64 22.66 -87.17 21.85 C-85.14 18.58 -83.61 18.04 -80.05 16.73 C-74.87 14.74 -69.85 12.58 -64.82 10.25 C-61.46 8.75 -59.93 8.16 -56.23 8.86 C-51.9 9.3 -50.32 8.2 -46.55 6.23 C-44.87 6.51 -43.2 6.84 -41.55 7.23 C-40.64 6.78 -40.64 6.78 -39.72 6.31 C-37.2 5.06 -35.14 4.77 -32.34 4.45 C-31.34 4.33 -30.34 4.21 -29.31 4.09 C-28.28 3.97 -27.24 3.85 -26.17 3.73 C-24.12 3.5 -22.07 3.26 -20.02 3.01 C-19.12 2.91 -18.21 2.81 -17.28 2.7 C-14.49 2.31 -14.49 2.31 -11.74 1.2 C-7.73 -0.02 -4.16 -0.04 0 0 Z " fill="#F1F2F3" transform="translate(378.546875,419.76953125)"/>
<path d="M0 0 C0.76 -0.01 1.52 -0.02 2.3 -0.02 C4.79 -0.04 7.27 -0.04 9.76 -0.04 C10.61 -0.04 11.45 -0.04 12.33 -0.04 C51.76 0.02 51.76 0.02 67.45 7.34 C70.15 7.9 70.15 7.9 72.76 8.02 C73.7 8.09 74.63 8.16 75.59 8.23 C79.19 8.36 82.76 8.32 86.36 8.18 C88.45 8.34 88.45 8.34 91.45 10.34 C91.45 11 91.45 11.66 91.45 12.34 C92.04 12.43 92.63 12.53 93.24 12.63 C94.03 12.78 94.82 12.93 95.64 13.09 C96.41 13.23 97.19 13.36 97.99 13.51 C101.06 14.54 102.92 16.31 105.45 18.34 C107.75 19.4 110.09 20.4 112.45 21.34 C117.13 23.19 120.6 25.11 124.45 28.34 C126.37 29.4 126.37 29.4 128.26 30.21 C132.09 32.04 135.28 34.34 138.62 36.95 C140.58 38.49 140.58 38.49 143.45 40.09 C144.11 40.5 144.77 40.91 145.45 41.34 C145.45 42 145.45 42.66 145.45 43.34 C146.58 43.6 147.72 43.87 148.89 44.15 C150.06 44.54 151.24 44.93 152.45 45.34 C152.78 46.33 153.11 47.32 153.45 48.34 C154.32 48.74 154.32 48.74 155.2 49.15 C157.82 50.53 159.16 52.34 160.98 54.64 C163.19 57.19 165.76 59.28 168.33 61.48 C171.88 64.59 175.14 67.97 178.45 71.34 C179.69 72.54 179.69 72.54 180.95 73.77 C182.19 75.04 182.19 75.04 183.45 76.34 C184.07 76.96 184.68 77.58 185.32 78.22 C190.08 83.24 193.09 88.2 196 94.46 C197.74 97.91 199.87 100.76 202.35 103.71 C203.45 105.34 203.45 105.34 203.45 108.34 C204.11 108.34 204.77 108.34 205.45 108.34 C207.49 111.24 208.45 112.74 208.45 116.34 C209.44 116.67 210.43 117 211.45 117.34 C212.44 119.3 212.44 119.3 213.32 121.84 C214.64 125.36 216.06 128.58 217.95 131.84 C220.19 135.72 221.84 139.64 223.4 143.84 C224.38 146.35 224.38 146.35 225.81 148.52 C229.88 155.11 229.73 160.71 229.5 168.21 C229.3 175.56 230.11 182.66 233.45 189.34 C234.62 199.88 234.61 210.51 234.58 221.1 C234.57 223.6 234.58 226.1 234.59 228.59 C234.6 251.22 234.6 251.22 230.36 260.72 C229.31 263.74 229.11 266.4 228.95 269.59 C228.75 273.58 228.68 275 226.39 278.4 C223.81 282.3 224.26 285.09 224.43 289.66 C224.49 297.7 220.03 305.35 216.45 312.34 C215.79 312.34 215.13 312.34 214.45 312.34 C214.37 313.39 214.28 314.44 214.2 315.52 C213.37 319.72 212.21 321.17 209.45 324.34 C208.43 326.33 207.43 328.33 206.45 330.34 C205.63 331.68 204.79 333.01 203.95 334.34 C201.89 337.57 200.1 340.86 198.45 344.34 C197.79 344.01 197.13 343.68 196.45 343.34 C195.79 344.33 195.13 345.32 194.45 346.34 C194.78 347.33 195.11 348.32 195.45 349.34 C194.48 349.79 193.51 350.24 192.51 350.71 C189.38 351.99 189.38 351.99 188.45 354.34 C188.78 355.33 189.11 356.32 189.45 357.34 C187.08 359.77 184.78 362.09 182.07 364.15 C179.88 365.98 178.22 367.68 176.39 369.84 C171.84 375.16 166.84 380.02 161.86 384.94 C158.79 387.97 155.76 390.99 152.89 394.21 C152.08 394.91 151.28 395.61 150.45 396.34 C148.2 396.09 148.2 396.09 146.45 395.34 C145.42 396.37 144.43 397.45 143.45 398.52 C137.98 404.01 130.85 407.77 124.2 411.65 C122.57 412.65 120.97 413.68 119.41 414.79 C114.45 418.3 110.49 420.41 104.45 421.34 C103.83 421.14 103.21 420.94 102.58 420.73 C99.45 420.15 97.57 421.29 94.7 422.59 C93.64 423.05 92.57 423.52 91.48 424 C90.48 424.44 89.48 424.88 88.45 425.34 C83.62 427.27 78.71 428.93 73.76 430.52 C71.45 431.29 71.45 431.29 69.36 432.34 C61.94 435.87 54.39 436.23 46.32 436.9 C40.63 437.38 35.06 438.33 29.45 439.34 C20.11 440.85 10.99 440.47 1.64 439.38 C0.74 439.28 -0.15 439.18 -1.07 439.08 C-2.95 438.86 -4.82 438.64 -6.7 438.42 C-9.54 438.09 -12.39 437.78 -15.23 437.46 C-24.24 436.44 -32.32 435.36 -40.55 431.34 C-42.31 430.78 -44.08 430.25 -45.86 429.77 C-48.69 428.97 -50.65 428.27 -53.18 426.71 C-57.37 424.28 -62.01 424.28 -66.74 424.46 C-70.19 424.31 -71.68 423.22 -74.55 421.34 C-75.6 420.9 -76.65 420.47 -77.74 420.02 C-82.64 417.99 -87.04 415.11 -91.55 412.34 C-93.2 411.36 -94.84 410.38 -96.49 409.4 C-100.06 407.26 -103.56 405.04 -107.05 402.77 C-110.61 400.48 -114.15 398.51 -117.99 396.71 C-121.93 394.81 -124.07 393.01 -126.55 389.34 C-127.42 388.49 -128.28 387.64 -129.18 386.77 C-131.55 384.34 -131.55 384.34 -132.55 382.15 C-133.98 379.56 -135.84 379.41 -138.55 378.34 C-142.01 375.34 -144.67 371.94 -147.49 368.34 C-149.83 365.35 -152.07 362.7 -155.05 360.34 C-155.88 359.68 -156.7 359.02 -157.55 358.34 C-157.55 357.68 -157.55 357.02 -157.55 356.34 C-158.42 356 -158.42 356 -159.3 355.65 C-164.31 352.73 -165.97 348.45 -167.78 343.24 C-168.89 340.51 -170.65 338.57 -172.55 336.34 C-175.41 332.13 -177.66 328.05 -179.55 323.34 C-180.09 322.82 -180.62 322.3 -181.18 321.77 C-182.55 320.34 -182.55 320.34 -182.55 316.34 C-183.16 316.12 -183.77 315.9 -184.39 315.67 C-189.45 312.54 -191 304.5 -192.39 299.02 C-192.85 296.99 -193.28 294.96 -193.68 292.93 C-194.36 290.2 -194.36 290.2 -196.63 288.51 C-199.46 285.3 -198.91 282.13 -198.68 278.09 C-198.33 270.9 -198.41 264.54 -202.55 258.34 C-202.96 255.26 -202.96 255.26 -203.18 251.65 C-203.25 250.4 -203.33 249.16 -203.4 247.87 C-203.52 245.1 -203.58 242.36 -203.55 239.59 C-203.31 236.45 -203.31 236.45 -204.55 234.34 C-204.57 231.29 -204.52 228.27 -204.43 225.23 C-204.41 224.31 -204.38 223.39 -204.36 222.44 C-204.28 219.49 -204.2 216.54 -204.11 213.59 C-204.03 210.68 -203.96 207.78 -203.88 204.88 C-203.83 202.99 -203.78 201.11 -203.72 199.22 C-203.61 195.13 -203.53 191.06 -203.66 186.96 C-203.69 185.72 -203.73 184.48 -203.77 183.2 C-203.82 182.14 -203.87 181.09 -203.92 180.01 C-203.45 176.58 -202.13 175.55 -199.55 173.34 C-197.75 169.74 -198.56 165.25 -198.68 161.28 C-198.74 157.45 -198.71 154.58 -196.55 151.34 C-195.89 151.34 -195.23 151.34 -194.55 151.34 C-194.45 150.64 -194.35 149.95 -194.25 149.23 C-192.78 141.32 -190.05 134.52 -186.61 127.27 C-185.97 125.9 -185.97 125.9 -185.31 124.5 C-183.14 120.05 -181.19 116.74 -177.55 113.34 C-176.86 111.68 -176.19 110.01 -175.55 108.34 C-174.34 106.62 -173.09 104.93 -171.8 103.27 C-168.88 99.38 -166.63 95.63 -164.61 91.21 C-161.66 84.99 -157.63 80.89 -152.55 76.34 C-147.47 71.38 -142.5 66.25 -138.55 60.34 C-137.22 59.75 -137.22 59.75 -135.86 59.15 C-132.09 57.08 -130.13 54.79 -127.41 51.54 C-118.6 41.1 -118.6 41.1 -111.55 39.34 C-110.19 38.37 -108.86 37.37 -107.55 36.34 C-106.35 35.63 -105.14 34.95 -103.93 34.27 C-100.6 32.56 -100.6 32.56 -98.55 30.34 C-97.58 30.05 -96.61 29.76 -95.61 29.46 C-92.51 28.66 -92.51 28.66 -91.32 26.51 C-88.82 23.44 -85.63 22.07 -82.11 20.4 C-81.4 20.05 -80.69 19.71 -79.96 19.35 C-73.92 16.44 -67.78 13.8 -61.55 11.34 C-60.69 10.96 -59.83 10.59 -58.94 10.2 C-55.78 9.05 -52.9 9.34 -49.55 9.34 C-47.2 8.46 -47.2 8.46 -45.55 7.34 C-45.55 8 -45.55 8.66 -45.55 9.34 C-44.17 9.08 -42.8 8.8 -41.43 8.52 C-40.66 8.37 -39.89 8.22 -39.11 8.07 C-36.45 7.41 -36.45 7.41 -33.88 5.83 C-29.41 3.82 -25.22 3.61 -20.36 3.27 C-18.58 3.14 -16.79 3.01 -15.01 2.86 C-14.22 2.81 -13.44 2.75 -12.63 2.7 C-8.07 1.9 -5 0.02 0 0 Z " fill="#F1F2F3" transform="translate(871.55078125,419.6640625)"/>
<path d="M0 0 C4.1 3.52 8.23 6.9 12.59 10.1 C29.11 22.5 29.11 22.5 33.69 30.56 C35.88 34.35 38.18 38 40.62 41.62 C41.63 43.29 42.63 44.96 43.62 46.62 C44.12 47.44 44.62 48.25 45.12 49.09 C46.64 51.59 48.13 54.11 49.62 56.62 C50.26 57.68 50.9 58.73 51.56 59.81 C52.93 63.42 52.25 65.87 51.62 69.62 C51.94 70.24 52.26 70.85 52.59 71.48 C53.93 74.25 53.79 76.3 53.69 79.38 C53.26 88.01 53.26 88.01 56.13 95.87 C58.06 99.43 58.1 102.27 58.25 106.31 C58.26 111.12 58.26 111.12 59.62 115.62 C59.3 116.62 58.96 117.61 58.62 118.62 C58.58 120.04 58.59 121.46 58.62 122.88 C58.68 126.91 58.3 130.65 57.62 134.62 C56.96 134.29 56.31 133.97 55.62 133.62 C55.62 132.97 55.62 132.31 55.62 131.62 C54.96 131.96 54.31 132.28 53.62 132.62 C53.68 133.88 53.68 133.88 53.73 135.15 C54.03 147.55 50.98 154.6 44.29 164.78 C42.24 167.93 40.41 170.94 39 174.43 C37.74 177.35 36.89 178.55 34.62 180.62 C34.02 181.85 33.46 183.11 32.94 184.38 C30.08 190.34 25.17 194 19.69 197.5 C15.93 200.11 12.99 203.24 9.8 206.51 C7.23 209 4.64 210.73 1.62 212.62 C0.25 213.92 -1.09 215.25 -2.38 216.62 C-2.91 217.14 -3.45 217.66 -4 218.19 C-5.61 219.78 -5.61 219.78 -7.38 222.62 C-9.7 223.33 -12.03 223.99 -14.38 224.62 C-15.1 225.08 -15.83 225.53 -16.58 226 C-20.16 228.08 -23.84 229.31 -27.75 230.62 C-29.22 231.12 -30.68 231.62 -32.15 232.12 C-32.79 232.34 -33.44 232.56 -34.1 232.78 C-36 233.49 -37.86 234.32 -39.7 235.18 C-51.51 239.84 -67.29 237.74 -79.8 237.49 C-82.9 237.44 -86 237.41 -89.1 237.38 C-91.1 237.35 -93.1 237.31 -95.09 237.27 C-96.01 237.27 -96.92 237.26 -97.87 237.26 C-103.2 237.12 -106.99 236.28 -111.62 233.57 C-114.01 232.28 -116.54 231.87 -119.17 231.28 C-123.95 229.86 -128.3 227.33 -132.69 225 C-133.71 224.46 -134.73 223.92 -135.79 223.36 C-146.01 217.87 -154.5 212.02 -162.4 203.41 C-164.45 201.55 -165.67 201.01 -168.38 200.62 C-168.38 199.97 -168.38 199.31 -168.38 198.62 C-169.03 198.62 -169.7 198.62 -170.38 198.62 C-171.3 197.23 -172.21 195.82 -173.11 194.4 C-174.53 192.41 -176.11 190.82 -177.88 189.12 C-180.89 186.21 -183.12 183.17 -185.38 179.62 C-185.97 179.09 -186.57 178.55 -187.19 178 C-187.58 177.55 -187.97 177.09 -188.38 176.62 C-188.1 175.7 -188.1 175.7 -187.81 174.75 C-187.67 174.05 -187.52 173.35 -187.38 172.62 C-188.66 170.92 -190 169.26 -191.38 167.62 C-192.43 165.31 -193.43 162.98 -194.38 160.62 C-194.93 159.66 -195.49 158.69 -196.06 157.69 C-197.76 153.72 -197.6 150.91 -197.38 146.62 C-198.03 146.62 -198.7 146.62 -199.38 146.62 C-209.75 131.06 -208.24 104.19 -205.02 86.54 C-204.3 83.3 -203.49 80.09 -202.69 76.88 C-201.35 71.36 -201.34 67.19 -202.38 61.62 C-201.05 62.28 -199.74 62.94 -198.38 63.62 C-198.06 62.88 -198.06 62.88 -197.75 62.11 C-193.57 52.38 -188.67 43.15 -182.38 34.62 C-182.04 33.63 -181.72 32.64 -181.38 31.62 C-182.03 31.29 -182.7 30.97 -183.38 30.62 C-182.38 30.62 -181.39 30.62 -180.38 30.62 C-180.11 29.9 -179.84 29.18 -179.57 28.43 C-175.85 19.67 -170.37 14.43 -162.38 9.62 C-161.09 8.71 -159.82 7.77 -158.56 6.81 C-157.6 6.08 -157.6 6.08 -156.61 5.34 C-154.88 4.01 -153.15 2.68 -151.42 1.35 C-150.37 0.55 -149.33 -0.24 -148.25 -1.06 C-146.79 -2.18 -146.79 -2.18 -145.3 -3.32 C-138.09 -8.38 -138.09 -8.38 -134.38 -8.38 C-134.3 -9 -134.23 -9.63 -134.15 -10.27 C-133.38 -12.38 -133.38 -12.38 -131.41 -13.35 C-130.62 -13.57 -129.82 -13.78 -129 -14 C-125.89 -14.86 -124.12 -15.54 -121.38 -17.38 C-117.1 -18.76 -112.73 -19.82 -108.38 -20.94 C-107.19 -21.25 -106.01 -21.57 -104.79 -21.9 C-69.24 -31.13 -28.12 -24.42 0 0 Z " fill="#1E2021" transform="translate(996.375,517.375)"/>
<path d="M0 0 C0.81 0.07 1.63 0.14 2.47 0.21 C7.25 0.72 10.66 1.85 14.94 4.19 C16.49 4.61 18.05 4.98 19.62 5.31 C29.86 7.94 41.24 13.13 49.94 19.19 C49.94 19.85 49.94 20.51 49.94 21.19 C51.05 21.59 51.05 21.59 52.19 22 C54.83 23.14 56.79 24.28 58.94 26.19 C58.94 26.85 58.94 27.51 58.94 28.19 C59.54 28.46 60.13 28.72 60.75 29 C62.95 30.19 64.18 31.43 65.94 33.19 C66.68 33.62 67.42 34.05 68.19 34.5 C72.65 37.24 77.24 40.1 78.94 45.19 C80.25 46.54 81.59 47.87 82.94 49.19 C87.75 55.19 91.87 61.46 95.42 68.29 C96.52 70.4 97.68 72.49 98.86 74.56 C99.83 76.26 99.83 76.26 100.81 78 C101.41 79.04 102 80.08 102.62 81.14 C104.05 84.44 104.03 86.65 103.94 90.19 C104.58 90.64 105.22 91.1 105.88 91.56 C107.94 93.19 107.94 93.19 108.56 96.34 C109.22 102.97 109.1 109.65 109.11 116.3 C109.11 117.76 109.11 119.22 109.12 120.68 C109.12 123.73 109.12 126.78 109.12 129.82 C109.12 133.73 109.14 137.63 109.15 141.54 C109.16 144.55 109.17 147.56 109.17 150.57 C109.17 152.01 109.17 153.45 109.18 154.89 C109.19 156.9 109.19 158.91 109.18 160.92 C109.18 162.06 109.18 163.2 109.18 164.37 C108.94 167.19 108.94 167.19 106.94 170.19 C105.95 170.19 104.96 170.19 103.94 170.19 C104.18 171.16 104.43 172.13 104.69 173.12 C105.94 182.46 97.61 191.78 92.94 199.19 C92.49 199.94 92.05 200.7 91.59 201.48 C85.21 212.32 75.47 220.73 66.38 229.25 C64.87 230.66 63.37 232.06 61.87 233.47 C61.21 234.09 60.55 234.71 59.87 235.34 C58.5 236.65 57.16 237.99 55.85 239.36 C53.67 241.45 51.72 242.08 48.94 243.19 C48.33 243.81 47.73 244.43 47.11 245.07 C39.57 252.43 27.53 255.27 17.73 258.56 C16.23 259.08 14.77 259.69 13.31 260.32 C0.46 265.01 -18.72 262.82 -32.14 261.39 C-35.67 261.14 -39.15 261.27 -42.69 261.38 C-49.46 261.43 -54.03 260.05 -60.06 257.19 C-61.56 256.69 -63.06 256.21 -64.56 255.75 C-69.67 254.08 -74.32 251.7 -79.06 249.19 C-80.02 248.7 -80.98 248.21 -81.96 247.71 C-87.13 245.01 -91.07 242.49 -95.06 238.19 C-97.37 236.32 -99.71 234.53 -102.07 232.74 C-104.06 231.19 -104.06 231.19 -106.06 229.19 C-107.61 228.63 -107.61 228.63 -109.19 228.06 C-114.22 226.01 -117.41 222.08 -121.06 218.19 C-121.97 217.36 -122.88 216.54 -123.81 215.69 C-127.49 211.6 -129.38 206.86 -131.44 201.81 C-132.8 198.78 -134.26 196.14 -136 193.31 C-138.34 189.49 -140.33 185.7 -142.06 181.57 C-142.78 179.87 -143.53 178.19 -144.31 176.52 C-148.07 168.24 -149.66 160.09 -151.06 151.19 C-151.34 149.83 -151.34 149.83 -151.62 148.45 C-153.48 134.6 -152.67 120.04 -149.72 106.42 C-148.93 103.08 -148.93 103.08 -149.06 99.19 C-148.07 98.69 -148.07 98.69 -147.06 98.19 C-147.39 97.2 -147.72 96.21 -148.06 95.19 C-147.4 95.19 -146.74 95.19 -146.06 95.19 C-146.04 94.57 -146.01 93.96 -145.98 93.32 C-145.81 90.89 -145.59 88.58 -145.06 86.19 C-143.77 85.14 -142.43 84.14 -141.06 83.19 C-140.79 82 -140.52 80.81 -140.24 79.58 C-139.15 74.83 -136.93 71.43 -134.12 67.5 C-133.24 66.23 -132.36 64.95 -131.47 63.68 C-130.85 62.78 -130.85 62.78 -130.22 61.87 C-128.71 59.68 -127.26 57.57 -126.06 55.19 C-126.39 54.2 -126.72 53.21 -127.06 52.19 C-126.63 51.73 -126.2 51.28 -125.75 50.81 C-123.77 48.73 -121.79 46.65 -119.81 44.56 C-119.13 43.85 -118.45 43.14 -117.75 42.4 C-114.08 38.52 -110.85 34.74 -108.06 30.19 C-107.4 30.85 -106.74 31.51 -106.06 32.19 C-101.03 28.95 -96.22 25.55 -91.5 21.88 C-77.41 11.34 -63.08 5.58 -46.06 1.19 C-44.96 0.9 -43.87 0.61 -42.73 0.31 C-29.05 -2.57 -13.82 -1.27 0 0 Z " fill="#1E2021" transform="translate(445.0625,492.8125)"/>
<path d="M0 0 C7.23 2.28 11.33 6.37 15 13 C15.66 13.99 16.32 14.98 17 16 C17.27 18.81 17.27 18.81 17.25 22 C17.26 23.58 17.26 23.58 17.27 25.19 C17 28 17 28 15 31 C13.68 31 12.36 31 11 31 C11.02 31.8 11.04 32.61 11.06 33.44 C11 36 11 36 10 37 C7.48 37.07 4.97 37 2.45 36.94 C-0.14 36.88 -0.14 36.88 -3 38 C-9.46 36.86 -15.4 33.68 -19.25 28.23 C-20.3 25.1 -19.95 22.52 -19.62 19.25 C-19.51 18.08 -19.4 16.91 -19.29 15.7 C-19.19 14.81 -19.1 13.92 -19 13 C-18.34 13 -17.68 13 -17 13 C-17 12.34 -17 11.68 -17 11 C-16.34 11 -15.68 11 -15 11 C-15 10.01 -15 9.02 -15 8 C-11.8 5.33 -9.81 4.06 -5.62 3.75 C-4.33 3.87 -4.33 3.87 -3 4 C-3 3.34 -3 2.68 -3 2 C-2.01 1.34 -1.02 0.68 0 0 Z " fill="#EFF0F1" transform="translate(983,518)"/>
<path d="M0 0 C4.89 4.35 7.25 10.74 8.94 16.94 C8.94 20.94 8.94 20.94 7.62 22.31 C7.07 22.85 6.51 23.38 5.94 23.94 C5.44 24.93 4.95 25.92 4.44 26.94 C2.21 31.4 2.21 31.4 -0.06 32.94 C-7.72 34.85 -16.12 34.38 -23.25 30.88 C-26.51 28.49 -27.01 27.27 -27.69 23.23 C-27.95 16.54 -27.35 10.27 -25.06 3.94 C-22.19 1.62 -22.19 1.62 -19.06 -0.06 C-18.42 -0.45 -17.78 -0.85 -17.12 -1.25 C-10.83 -3.73 -5.57 -3.75 0 0 Z " fill="#EFF0F1" transform="translate(495.0625,522.0625)"/>
<path d="M0 0 C1.35 0.09 2.7 0.13 4.05 0.13 C4.89 0.13 5.72 0.14 6.58 0.14 C7.48 0.14 8.38 0.13 9.31 0.13 C10.24 0.13 11.16 0.13 12.11 0.14 C14.07 0.14 16.03 0.13 17.99 0.13 C20.99 0.13 23.99 0.13 26.99 0.14 C28.89 0.14 30.79 0.13 32.69 0.13 C34.04 0.14 34.04 0.14 35.42 0.14 C36.26 0.14 37.09 0.13 37.95 0.13 C38.68 0.13 39.42 0.13 40.18 0.13 C42.1 0.11 42.1 0.11 44 -1 C53.12 -2.22 62.29 0.56 71 3 C71.5 3.5 71.5 3.5 72 4 C73.47 4.37 74.95 4.7 76.44 5 C78.84 5.49 80.8 5.9 83 7 C83 7.66 83 8.32 83 9 C83.62 9.14 84.24 9.29 84.88 9.44 C87 10 87 10 89 11 C90.11 10.96 91.23 10.92 92.38 10.88 C96.46 11.02 96.91 11.65 100 14 C102.53 14.86 105.07 15.5 107.66 16.16 C110.15 17.05 111.31 18 113 20 C112.67 20.99 112.34 21.98 112 23 C111.41 22.73 110.82 22.47 110.21 22.2 C102.66 18.78 102.66 18.78 94.84 16.1 C90.93 14.98 87.06 13.78 83.19 12.56 C81.77 12.12 80.35 11.68 78.93 11.23 C76.67 10.53 74.41 9.81 72.16 9.08 C66.65 7.33 61.19 6.27 55.47 5.43 C53 5 53 5 51 4 C42.14 2.76 33.27 2.81 24.34 2.81 C21.74 2.81 19.14 2.79 16.55 2.78 C14.88 2.77 13.21 2.77 11.55 2.77 C10.78 2.76 10.01 2.76 9.22 2.75 C4.72 2.77 1.27 3.43 -3 5 C-4.82 5.31 -6.64 5.57 -8.48 5.78 C-9.48 5.9 -10.48 6.02 -11.51 6.14 C-13.59 6.38 -15.68 6.62 -17.77 6.86 C-18.76 6.98 -19.76 7.1 -20.79 7.22 C-21.69 7.32 -22.6 7.42 -23.53 7.53 C-26.01 8 -27.78 8.83 -30 10 C-32.75 9.97 -35.27 9.45 -38 9 C-38.33 9.66 -38.66 10.32 -39 11 C-41.88 11.75 -41.88 11.75 -45 12 C-45.99 11.34 -46.98 10.68 -48 10 C-47.03 9.92 -46.06 9.83 -45.06 9.75 C-41.93 9.33 -39.62 8.38 -36.81 6.94 C-31.31 4.3 -25.98 4.64 -20 5 C-20 4.34 -20 3.68 -20 3 C-14.73 -0.37 -5.85 -2.93 0 0 Z " fill="#4D5051" transform="translate(367,418)"/>
<path d="M0 0 C1.32 -0.01 2.63 -0.03 3.99 -0.04 C7.47 0.17 9.68 0.45 12.69 2.19 C14 4.31 14 4.31 14.69 6.19 C15.88 6.13 17.07 6.07 18.3 6.01 C19.87 5.96 21.43 5.92 23 5.88 C24.18 5.81 24.18 5.81 25.38 5.75 C27.59 5.7 29.53 5.7 31.69 6.19 C33.73 8.71 33.73 8.71 34.69 11.19 C31.19 12.41 29.05 11.95 25.56 10.81 C24.69 10.54 23.82 10.26 22.93 9.98 C20.69 9.19 20.69 9.19 18.69 8.19 C1.91 4.8 -14.93 3.79 -32 3.81 C-32.84 3.81 -33.69 3.81 -34.55 3.81 C-36.96 3.81 -39.36 3.83 -41.76 3.85 C-42.48 3.85 -43.2 3.86 -43.95 3.86 C-47.61 3.93 -49.18 4.1 -52.31 6.19 C-54.33 6.53 -54.33 6.53 -56.63 6.68 C-57.47 6.74 -58.31 6.81 -59.18 6.87 C-60.07 6.93 -60.96 7 -61.88 7.06 C-68.53 7.61 -74.31 8.3 -80.34 11.38 C-82.76 12.37 -84.72 12.32 -87.31 12.19 C-86.74 9.32 -86.45 8.33 -84.31 6.19 C-81.73 6.04 -79.26 6 -76.69 6.06 C-75.98 6.07 -75.27 6.08 -74.55 6.09 C-72.8 6.11 -71.06 6.15 -69.31 6.19 C-69.31 5.53 -69.31 4.87 -69.31 4.19 C-62.47 1.06 -56.69 0.8 -49.23 0.93 C-47.52 0.94 -47.52 0.94 -45.78 0.95 C-42.16 0.97 -38.55 1.02 -34.94 1.06 C-31.3 1.1 -27.67 1.13 -24.03 1.15 C-21.78 1.17 -19.52 1.19 -17.26 1.22 C-16.25 1.23 -15.23 1.24 -14.19 1.25 C-13.29 1.26 -12.4 1.28 -11.47 1.29 C-7.63 1.11 -4.05 0 0 0 Z " fill="#545758" transform="translate(913.3125,416.8125)"/>
<path d="M0 0 C-0.99 2.6 -1.6 3.78 -4.07 5.16 C-4.89 5.46 -5.71 5.76 -6.56 6.06 C-7.45 6.39 -8.34 6.71 -9.26 7.05 C-10.17 7.36 -11.07 7.68 -12 8 C-12.83 8.3 -13.66 8.61 -14.52 8.92 C-18.32 10.26 -20.89 11 -25 11 C-25 11.66 -25 12.32 -25 13 C-26.18 13.19 -26.18 13.19 -27.38 13.38 C-30.14 13.79 -30.14 13.79 -32 16 C-34.36 16.58 -36.74 17.06 -39.12 17.5 C-40.41 17.74 -41.69 17.97 -43.01 18.22 C-43.67 18.34 -44.34 18.46 -45.02 18.59 C-46.9 18.98 -48.75 19.53 -50.59 20.09 C-56.76 21.67 -63.18 21.21 -69.5 21.12 C-70.8 21.12 -72.1 21.11 -73.44 21.1 C-76.63 21.07 -79.81 21.04 -83 21 C-83 20.34 -83 19.68 -83 19 C-81.91 18.88 -80.82 18.76 -79.7 18.63 C-72.01 17.76 -64.39 16.79 -56.77 15.43 C-53.96 14.99 -51.21 14.8 -48.38 14.62 C-43.7 14.25 -39.94 13.06 -35.68 11.13 C-33.41 10.17 -31.18 9.39 -28.84 8.63 C-22.76 6.64 -16.9 4.12 -11.02 1.61 C-9.75 1.08 -9.75 1.08 -8.45 0.55 C-7.31 0.06 -7.31 0.06 -6.15 -0.43 C-3.7 -1.08 -2.37 -0.82 0 0 Z " fill="#4B4E4F" transform="translate(976,840)"/>
<path d="M0 0 C0.5 1.49 0.5 1.49 1 3 C-0.31 5.19 -0.31 5.19 -2 7 C-2.66 7 -3.32 7 -4 7 C-4.26 7.58 -4.52 8.16 -4.78 8.76 C-6.11 11.2 -7.56 12.81 -9.51 14.77 C-10.59 15.86 -10.59 15.86 -11.69 16.97 C-12.47 17.74 -13.24 18.51 -14.04 19.31 C-14.84 20.11 -15.65 20.92 -16.47 21.74 C-18.17 23.44 -19.87 25.14 -21.57 26.84 C-24.17 29.42 -26.75 32.01 -29.33 34.6 C-30.98 36.26 -32.64 37.91 -34.29 39.56 C-35.44 40.72 -35.44 40.72 -36.62 41.89 C-40.85 46.09 -45.11 49.6 -50 53 C-50.33 53.66 -50.66 54.32 -51 55 C-51.66 55 -52.32 55 -53 55 C-53.38 52.83 -53.38 52.83 -53 50 C-51.01 48 -49.16 46.38 -46.94 44.69 C-42.47 41.11 -38.53 37.59 -34.87 33.17 C-29.59 27.04 -23.74 20.62 -17 16.12 C-13.68 13.77 -12.1 11.45 -10 8 C-8.38 6.12 -8.38 6.12 -7 5 C-6.34 5 -5.68 5 -5 5 C-4.73 4.36 -4.46 3.72 -4.19 3.06 C-3 1 -3 1 0 0 Z " fill="#B7B8BA" transform="translate(570,767)"/>
<path d="M0 0 C8.05 0.5 14.53 8.23 19.91 13.64 C20.52 14.25 21.13 14.86 21.76 15.48 C23.03 16.76 24.3 18.03 25.57 19.31 C27.52 21.27 29.48 23.22 31.44 25.16 C32.68 26.41 33.92 27.65 35.16 28.89 C35.74 29.47 36.33 30.06 36.94 30.66 C41 34.77 41 34.77 41 37 C41.58 37.23 42.15 37.45 42.75 37.69 C46.42 39.83 48.5 42.68 50 46.62 C51.18 49.43 52.59 50.23 55 52 C55 52.99 55 53.98 55 55 C51.55 53.55 49.61 51.71 47.19 48.88 C46.48 48.06 45.78 47.25 45.05 46.42 C43.82 44.97 42.6 43.51 41.38 42.05 C37.35 37.27 32.9 33.07 28.28 28.87 C23.82 24.8 19.48 20.62 15.19 16.38 C14.57 15.77 13.95 15.17 13.32 14.54 C11.84 13.07 10.41 11.54 9 10 C9 9.34 9 8.68 9 8 C8.26 7.79 7.51 7.59 6.75 7.38 C3.21 5.6 1.98 3.37 0 0 Z " fill="#B2B3B5" transform="translate(516,459)"/>
<path d="M0 0 C3.63 1.73 7.32 2.67 11.21 3.59 C13.66 4.27 13.66 4.27 15.43 5.26 C18.24 6.53 20.72 6.78 23.78 7.09 C24.96 7.21 26.15 7.33 27.37 7.46 C28.6 7.58 29.83 7.71 31.1 7.83 C33.53 8.08 35.97 8.33 38.41 8.59 C39.49 8.69 40.57 8.8 41.68 8.91 C44.38 9.24 47 9.69 49.66 10.27 C47.66 13.27 47.66 13.27 44.06 14.01 C39.69 14.4 35.55 14.05 31.22 13.46 C30.5 13.37 29.79 13.29 29.04 13.21 C27.24 12.97 25.45 12.63 23.66 12.27 C23.17 11.28 23.17 11.28 22.66 10.27 C20.84 9.87 20.84 9.87 18.66 9.77 C13.87 9.35 9.32 8.4 4.66 7.27 C5.66 5.27 5.66 5.27 6.66 4.27 C6.1 4.22 5.55 4.17 4.97 4.12 C-2.73 3.37 -9.45 2.03 -16.34 -1.73 C-17.12 -2.12 -17.91 -2.51 -18.71 -2.92 C-19.25 -3.19 -19.79 -3.45 -20.34 -3.73 C-12.47 -5.94 -6.85 -3.67 0 0 Z " fill="#4D5051" transform="translate(823.33984375,847.73046875)"/>
<path d="M0 0 C7.42 2.24 13.78 8.37 19.93 12.96 C20.63 13.48 21.33 14 22.05 14.54 C22.72 15.04 23.39 15.55 24.07 16.06 C24.67 16.51 25.27 16.96 25.88 17.42 C27.57 18.79 29.11 20.14 30.55 21.77 C30.55 22.43 30.55 23.09 30.55 23.77 C31.27 23.98 31.99 24.18 32.74 24.39 C36.59 26.28 38.13 28.22 40.55 31.77 C40.18 33.96 40.18 33.96 39.55 35.77 C38.86 35.2 38.17 34.63 37.46 34.05 C33.1 30.46 28.73 26.88 24.24 23.46 C21.49 21.35 18.85 19.17 16.27 16.88 C9.42 10.82 2.92 5.66 -5.45 1.77 C-2.45 -0.23 -2.45 -0.23 0 0 Z " fill="#818485" transform="translate(982.44921875,503.23046875)"/>
<path d="M0 0 C4.28 2.51 6.65 4.12 8 9 C8.66 9 9.32 9 10 9 C10 9.66 10 10.32 10 11 C10.99 11.33 11.98 11.66 13 12 C13 12.66 13 13.32 13 14 C13.59 14.27 14.17 14.53 14.78 14.81 C17.05 16.03 18.65 17.33 20.53 19.08 C21.18 19.68 21.82 20.29 22.49 20.91 C23.48 21.85 23.48 21.85 24.5 22.81 C25.16 23.43 25.83 24.05 26.51 24.68 C29.96 27.92 33.27 31.11 36 35 C36 35.66 36 36.32 36 37 C36.62 37.25 37.24 37.5 37.88 37.75 C40.4 39.24 40.72 40.44 42 43 C43.33 43.68 44.66 44.35 46 45 C46.33 45.99 46.66 46.98 47 48 C42.39 46.56 39.41 43.91 36 40.62 C34.85 39.53 33.7 38.44 32.54 37.36 C31.96 36.8 31.37 36.24 30.77 35.67 C29.07 34.06 27.35 32.49 25.61 30.93 C6.98 14.09 6.98 14.09 3 5 C3 4.34 3 3.68 3 3 C2.01 2.67 1.02 2.34 0 2 C0 1.34 0 0.68 0 0 Z " fill="#B7B8BA" transform="translate(210,768)"/>
<path d="M0 0 C1.65 0.99 3.3 1.98 5 3 C5.6 5.94 5.6 5.94 5.56 9.5 C5.55 10.8 5.54 12.1 5.54 13.44 C5.52 14.12 5.5 14.8 5.49 15.49 C5.44 17.53 5.43 19.57 5.42 21.6 C5.3 31.57 3.89 40.5 1 50 C0.34 50 -0.32 50 -1 50 C-0.67 33.5 -0.34 17 0 0 Z " fill="#808384" transform="translate(554,605)"/>
<path d="M0 0 C0.66 0 1.32 0 2 0 C6.55 4.83 6.56 9.61 6.82 16.07 C6.88 19.06 6.88 19.06 8 22 C7.72 24.34 7.39 26.68 7 29 C7.99 29 8.98 29 10 29 C10.33 28.34 10.66 27.68 11 27 C11.75 35.36 12.14 43.61 12 52 C11.01 52 10.02 52 9 52 C8.87 51.17 8.74 50.34 8.6 49.48 C7.99 45.63 7.38 41.79 6.75 37.94 C6.64 37.25 6.53 36.56 6.41 35.85 C4.97 27.05 3.37 18.43 0.7 9.91 C-0.11 6.53 -0.12 3.46 0 0 Z " fill="#7A7D7E" transform="translate(599,574)"/>
<path d="M0 0 C2.65 2.65 3.18 5.56 4.19 9.06 C7.61 20.47 11.72 31.99 18.05 42.14 C19.2 44.39 19.6 46.52 20 49 C18.51 49.5 18.51 49.5 17 50 C9 41.11 2.78 26.79 2.94 14.75 C2.95 13.86 2.96 12.97 2.96 12.05 C2.98 11.37 2.99 10.7 3 10 C2.01 10 1.02 10 0 10 C-1.6 6.88 -2.19 5.61 -1.12 2.19 C-0.75 1.47 -0.38 0.74 0 0 Z " fill="#B8B9BB" transform="translate(175,689)"/>
<path d="M0 0 C0.66 0 1.32 0 2 0 C3.58 10.87 3.09 20.33 0 31 C-0.66 31.66 -1.32 32.32 -2 33 C-2.19 35.01 -2.39 37.02 -2.58 39.02 C-3.19 41.9 -4.73 43.24 -7 45 C-8.57 36.29 -6.63 29.89 -3.88 21.62 C-2.79 17.11 -2.56 12.71 -2.34 8.09 C-2 5.04 -1.28 2.77 0 0 Z " fill="#494C4D" transform="translate(608,657)"/>
<path d="M0 0 C0.33 0.66 0.66 1.32 1 2 C1.99 2.33 2.98 2.66 4 3 C-1.82 9.96 -7.99 16.17 -14.87 22.09 C-18.74 25.56 -22.36 29.29 -26 33 C-26.66 32.67 -27.32 32.34 -28 32 C-26.1 20.37 -8.02 7.93 0 0 Z " fill="#B8B9BB" transform="translate(242,473)"/>
<path d="M0 0 C1.3 0.01 2.6 0.03 3.93 0.04 C7.33 0.35 9.62 0.7 12.56 2.38 C13.88 4.5 13.88 4.5 14.56 6.38 C15.75 6.32 16.95 6.26 18.18 6.2 C19.74 6.15 21.31 6.11 22.88 6.06 C24.05 6 24.05 6 25.26 5.94 C27.47 5.89 29.4 5.89 31.56 6.38 C33.61 8.89 33.61 8.89 34.56 11.38 C31.06 12.6 28.92 12.13 25.44 11 C24.57 10.72 23.7 10.45 22.8 10.16 C20.56 9.38 20.56 9.38 18.56 8.38 C16.32 8.01 14.06 7.7 11.8 7.4 C11.14 7.31 10.48 7.23 9.8 7.14 C7.68 6.86 5.56 6.59 3.44 6.31 C2 6.12 0.57 5.94 -0.87 5.75 C-4.39 5.29 -7.91 4.83 -11.44 4.38 C-7.66 0.19 -5.68 -0.12 0 0 Z " fill="#4D5051" transform="translate(913.4375,416.625)"/>
<path d="M0 0 C0 0.66 0 1.32 0 2 C0.62 2.14 1.24 2.29 1.88 2.44 C4 3 4 3 6 4 C7.11 3.96 8.23 3.92 9.38 3.88 C13.46 4.02 13.91 4.65 17 7 C19.53 7.86 22.07 8.5 24.66 9.16 C27.15 10.05 28.31 11 30 13 C29.67 13.99 29.34 14.98 29 16 C28.41 15.73 27.82 15.47 27.21 15.2 C19.66 11.78 19.66 11.78 11.84 9.1 C7.93 7.98 4.06 6.78 0.19 5.56 C-5.86 3.66 -11.92 1.8 -18 0 C-18 -0.33 -18 -0.66 -18 -1 C-4.9 -3.14 -4.9 -3.14 0 0 Z " fill="#B7B8BA" transform="translate(450,425)"/>
<path d="M0 0 C0.99 0.66 1.98 1.32 3 2 C2 5 2 5 -0.12 6.29 C-1.03 6.73 -1.94 7.17 -2.88 7.62 C-8.32 10.46 -12.74 13.91 -17.41 17.88 C-20.76 20.63 -24.26 22.81 -28 25 C-28.33 24.34 -28.66 23.68 -29 23 C-25.75 15.69 -18.16 11.3 -11.88 6.75 C-11.28 6.31 -10.68 5.88 -10.06 5.43 C-3.84 0.98 -3.84 0.98 0 0 Z " fill="#B8B9BB" transform="translate(860,504)"/>
<path d="M0 0 C-0.33 1.32 -0.66 2.64 -1 4 C-2.3 4.18 -2.3 4.18 -3.63 4.37 C-4.79 4.53 -5.94 4.7 -7.12 4.88 C-8.26 5.04 -9.4 5.2 -10.57 5.37 C-13.95 5.9 -13.95 5.9 -16.89 6.99 C-20.8 8.26 -24.62 8.77 -28.69 9.25 C-29.45 9.35 -30.2 9.46 -30.99 9.56 C-36.64 10.24 -36.64 10.24 -40 8 C-40 7.34 -40 6.68 -40 6 C-35.07 4.46 -30.33 3.58 -25.19 3.06 C-19.58 2.45 -14.47 1.34 -9.13 -0.47 C-5.82 -1.29 -3.29 -0.79 0 0 Z " fill="#535657" transform="translate(448,852)"/>
<path d="M0 0 C0.58 0.68 1.15 1.36 1.75 2.06 C-4.91 4.72 -11.95 5.12 -19.02 5.92 C-20.01 6.04 -21.01 6.16 -22.04 6.28 C-22.94 6.38 -23.85 6.49 -24.78 6.59 C-27.26 7.06 -29.03 7.9 -31.25 9.06 C-34 9.03 -36.52 8.52 -39.25 8.06 C-39.58 8.72 -39.91 9.38 -40.25 10.06 C-43.12 10.81 -43.12 10.81 -46.25 11.06 C-47.24 10.4 -48.23 9.74 -49.25 9.06 C-48.28 8.98 -47.31 8.9 -46.31 8.81 C-43.18 8.39 -40.87 7.45 -38.06 6 C-32.56 3.36 -27.23 3.7 -21.25 4.06 C-21.25 3.4 -21.25 2.74 -21.25 2.06 C-15.05 -1.9 -6.53 -3.89 0 0 Z " fill="#4B4E4F" transform="translate(368.25,418.9375)"/>
<path d="M0 0 C3.96 0.33 7.92 0.66 12 1 C12.66 2.65 13.32 4.3 14 6 C14.69 5.65 15.38 5.3 16.09 4.94 C19.7 3.77 21.89 4.19 25.61 4.9 C27.48 5.25 27.48 5.25 29.39 5.6 C30.69 5.86 31.98 6.11 33.31 6.38 C34.64 6.63 35.96 6.88 37.29 7.12 C40.53 7.74 43.77 8.36 47 9 C47 9.99 47 10.98 47 12 C39.45 12.3 32.41 11.43 25 10 C25 9.34 25 8.68 25 8 C23.95 8.07 23.95 8.07 22.88 8.14 C16.92 8.37 13.01 7.97 7.86 4.96 C4.96 3.46 2.23 3.27 -1 3 C-0.67 2.01 -0.34 1.02 0 0 Z " fill="#4F5253" transform="translate(323,849)"/>
<path d="M0 0 C0.99 0.66 1.98 1.32 3 2 C1.69 4.69 0.28 7.25 -1.31 9.79 C-1.97 10.83 -1.97 10.83 -2.63 11.89 C-3.08 12.61 -3.54 13.32 -4 14.06 C-4.68 15.14 -4.68 15.14 -5.37 16.24 C-7.21 19.19 -9.07 22.11 -11 25 C-11.29 26.18 -11.58 27.35 -11.88 28.56 C-13 32 -13 32 -15.12 33.44 C-15.74 33.62 -16.36 33.81 -17 34 C-18.13 30.15 -18.23 28.47 -16.44 24.81 C-15.87 23.94 -15.87 23.94 -15.3 23.04 C-13.77 20.64 -12.5 18.15 -11.19 15.62 C-8.14 9.99 -4.55 4.55 0 0 Z " fill="#B3B4B6" transform="translate(317,545)"/>
<path d="M0 0 C0.99 0.33 1.98 0.66 3 1 C0.48 10.21 0.48 10.21 -1.62 13.69 C-3.42 16.71 -3.54 19.55 -4 23 C-4.66 23.66 -5.32 24.32 -6 25 C-6.52 26.92 -6.97 28.86 -7.38 30.81 C-8.46 35.44 -9.49 38.61 -13 42 C-14.19 39.88 -14.19 39.88 -15 37 C-13.84 34.16 -12.45 31.71 -10.81 29.12 C-9.74 26.33 -10.03 23.96 -10.32 21 C-10 19 -10 19 -8.09 17.09 C-5.6 14.6 -5.18 12.91 -4.44 9.5 C-3.57 5.59 -2.61 3.07 0 0 Z " fill="#B1B2B4" transform="translate(188,548)"/>
<path d="M0 0 C5.36 2.59 7.37 4.3 9.38 10 C11.27 15.2 13.42 20.03 16.08 24.88 C17 27 17 27 17 31 C14.83 30.49 13 30 11 29 C9.92 26.8 9.92 26.8 8.75 23.88 C8.32 22.8 7.89 21.73 7.44 20.62 C6.97 19.43 6.49 18.23 6 17 C5.45 15.65 4.89 14.29 4.34 12.94 C3.79 11.58 3.24 10.23 2.69 8.88 C2.42 8.22 2.15 7.57 1.88 6.9 C0 2.23 0 2.23 0 0 Z " fill="#B7B8BA" transform="translate(1084,549)"/>
<path d="M0 0 C11.22 0 22.44 0 34 0 C32 4 32 4 31 5 C27.47 5.25 23.92 5.19 20.38 5.19 C19.39 5.2 18.4 5.21 17.39 5.22 C11.89 5.24 7.13 5.07 2 3 C1.34 2.01 0.68 1.02 0 0 Z " fill="#B8B9BB" transform="translate(903,754)"/>
<path d="M0 0 C2.38 1.25 2.38 1.25 5 4 C6.05 7.96 6.57 11.93 7 16 C7.99 16.33 8.98 16.66 10 17 C11.35 19.73 11.35 19.73 12.62 23.19 C13.05 24.32 13.48 25.44 13.91 26.61 C14.92 29.75 15.55 32.73 16 36 C14.51 36.5 14.51 36.5 13 37 C8.28 29.33 4.97 21.98 3.54 13.08 C3.12 10.75 3.12 10.75 0.81 8.81 C0.21 8.21 -0.38 7.62 -1 7 C-0.75 3.25 -0.75 3.25 0 0 Z " fill="#B7B8BA" transform="translate(674,699)"/>
<path d="M0 0 C0.83 0.05 1.66 0.1 2.52 0.15 C3.84 0.23 3.84 0.23 5.19 0.32 C12.72 0.75 20.21 1.02 27.75 0.88 C27.03 2.83 27.03 2.83 25.75 4.88 C23.76 5.49 23.76 5.49 21.32 5.63 C20.42 5.68 19.53 5.74 18.61 5.79 C17.67 5.82 16.72 5.85 15.75 5.88 C14.82 5.91 13.89 5.94 12.93 5.96 C-1.68 6.17 -1.68 6.17 -5.75 2.82 C-6.24 2.18 -6.74 1.54 -7.25 0.88 C-4.36 -0.08 -2.95 -0.19 0 0 Z " fill="#A3A5A6" transform="translate(414.24609375,753.12109375)"/>
<path d="M0 0 C0.66 0 1.32 0 2 0 C2.8 1.64 2.8 1.64 3.62 3.31 C6.72 9.49 9.92 15.66 13.58 21.53 C14.96 23.94 15.86 26.17 16.69 28.81 C16.94 29.6 17.19 30.39 17.45 31.21 C17.63 31.8 17.81 32.39 18 33 C9.95 27.11 4.12 18.48 1 9 C1 8.01 1 7.02 1 6 C0.34 6 -0.32 6 -1 6 C-1.62 4.12 -1.62 4.12 -2 2 C-1.34 1.34 -0.68 0.68 0 0 Z " fill="#B8B9BB" transform="translate(300,670)"/>
<path d="M0 0 C0.66 0.33 1.32 0.66 2 1 C-5.22 8.39 -13.08 14.78 -22 20 C-22.66 18.68 -23.32 17.36 -24 16 C-16.68 9.43 -9.42 3.39 0 0 Z " fill="#B2B3B5" transform="translate(361,506)"/>
<path d="M0 0 C3.63 1.73 7.32 2.67 11.21 3.59 C13.57 4.24 15.52 5.1 17.66 6.27 C17.66 6.93 17.66 7.59 17.66 8.27 C13.37 7.94 9.08 7.61 4.66 7.27 C5.66 5.27 5.66 5.27 6.66 4.27 C6.1 4.22 5.55 4.17 4.97 4.12 C-2.73 3.37 -9.45 2.03 -16.34 -1.73 C-17.12 -2.12 -17.91 -2.51 -18.71 -2.92 C-19.25 -3.19 -19.79 -3.45 -20.34 -3.73 C-12.47 -5.94 -6.85 -3.67 0 0 Z " fill="#B8B9BB" transform="translate(823.33984375,847.73046875)"/>
<path d="M0 0 C0.99 0.33 1.98 0.66 3 1 C2.45 5.12 1.18 7.51 -1.31 10.81 C-3.59 13.94 -5.59 16.94 -7.25 20.44 C-8.73 23.45 -9.64 24.83 -12 27 C-13.38 24.5 -13.38 24.5 -14 21 C-12.74 18.78 -11.23 16.96 -9.59 15.01 C-7.42 12.27 -6.36 9.2 -5 6 C-3.44 3.86 -1.77 1.97 0 0 Z " fill="#808384" transform="translate(812,548)"/>
<path d="M0 0 C0.66 0.33 1.32 0.66 2 1 C1.67 12.55 1.34 24.1 1 36 C0.01 36 -0.98 36 -2 36 C-3 35 -3 35 -3.11 33.19 C-3.11 32.42 -3.1 31.65 -3.1 30.85 C-3.09 30.01 -3.09 29.17 -3.09 28.3 C-3.08 27.42 -3.07 26.54 -3.06 25.62 C-3.06 24.75 -3.05 23.87 -3.05 22.97 C-3.04 21.34 -3.03 19.7 -3.02 18.07 C-3 16.38 -3 14.69 -3 13 C-2.69 11.66 -2.36 10.33 -2 9 C-1.64 7.42 -1.29 5.83 -0.94 4.25 C-0.76 3.45 -0.58 2.65 -0.4 1.83 C-0.27 1.22 -0.14 0.62 0 0 Z " fill="#5B5E5F" transform="translate(667,618)"/>
<path d="M0 0 C7.4 0.41 12.92 2.38 19.56 5.56 C20.48 5.99 21.39 6.41 22.33 6.85 C24.56 7.89 26.78 8.94 29 10 C29 10.33 29 10.66 29 11 C27.35 11 25.7 11 24 11 C23.67 11.66 23.34 12.32 23 13 C15.01 9.85 7.46 6.27 0 2 C0 1.34 0 0.68 0 0 Z " fill="#C1C2C3" transform="translate(291,835)"/>
<path d="M0 0 C0.33 0.99 0.66 1.98 1 3 C1.66 3 2.32 3 3 3 C1.01 10.89 -2.19 17.82 -6 25 C-7.32 24.34 -8.64 23.68 -10 23 C-9.38 18.08 -7.25 14.15 -5 9.81 C-4.63 9.09 -4.26 8.36 -3.88 7.62 C-2.93 5.74 -1.96 3.87 -1 2 C-0.67 1.34 -0.34 0.68 0 0 Z " fill="#B8B9BB" transform="translate(689,540)"/>
<path d="M0 0 C-1 2.65 -1.61 3.79 -4.14 5.16 C-4.98 5.46 -5.82 5.76 -6.69 6.06 C-9.74 7.17 -12.62 8.29 -15.56 9.69 C-19.72 11.27 -23.59 11.71 -28 12 C-28 11.34 -28 10.68 -28 10 C-19.58 4.88 -10.08 -0.53 0 0 Z " fill="#B6B7B9" transform="translate(821,429)"/>
<path d="M0 0 C0.33 0 0.66 0 1 0 C3.06 13.28 -1.07 20.78 -8 32 C-8.66 31.34 -9.32 30.68 -10 30 C-9.64 25.55 -8.26 21.83 -6.5 17.75 C-5.83 16.2 -5.83 16.2 -5.16 14.61 C-4.47 13.06 -3.76 11.52 -3 10 C-2.01 10 -1.02 10 0 10 C0 6.7 0 3.4 0 0 Z " fill="#707374" transform="translate(1048,652)"/>
<path d="M0 0 C-0.99 2.6 -1.6 3.78 -4.07 5.16 C-4.89 5.46 -5.71 5.76 -6.56 6.06 C-7.45 6.39 -8.34 6.71 -9.26 7.05 C-10.62 7.52 -10.62 7.52 -12 8 C-12.84 8.31 -13.69 8.63 -14.55 8.95 C-20.6 11.13 -20.6 11.13 -24 10 C-24 9.01 -24 8.02 -24 7 C-20.76 5.63 -17.5 4.28 -14.25 2.94 C-13.33 2.55 -12.41 2.16 -11.46 1.76 C-10.57 1.39 -9.68 1.03 -8.77 0.65 C-7.95 0.31 -7.13 -0.03 -6.29 -0.38 C-3.76 -1.07 -2.44 -0.87 0 0 Z " fill="#989A9B" transform="translate(976,840)"/>
<path d="M0 0 C2.12 0.38 2.12 0.38 4 1 C1.08 5.91 -2.28 9.72 -7 13 C-7.66 13 -8.32 13 -9 13 C-9.33 13.99 -9.66 14.98 -10 16 C-11.88 17.84 -13.93 19.37 -16 21 C-16.99 20.01 -17.98 19.02 -19 18 C-15.37 14.32 -11.64 10.79 -7.81 7.31 C-3.85 3.72 -3.85 3.72 0 0 Z " fill="#B1B2B4" transform="translate(1014,715)"/>
<path d="M0 0 C0 0.66 0 1.32 0 2 C0.66 2.33 1.32 2.66 2 3 C-11.74 9.61 -11.74 9.61 -19 11 C-19.66 10.67 -20.32 10.34 -21 10 C-21 9.01 -21 8.02 -21 7 C-18.44 5.82 -15.88 4.66 -13.31 3.5 C-12.59 3.17 -11.87 2.83 -11.13 2.49 C-7.29 0.77 -4.31 -0.48 0 0 Z " fill="#AFB0B2" transform="translate(481,838)"/>
<path d="M0 0 C0.99 0.66 1.98 1.32 3 2 C1.61 5.15 -0.02 7.26 -2.48 9.67 C-3.48 10.67 -3.48 10.67 -4.51 11.68 C-5.21 12.37 -5.91 13.05 -6.62 13.75 C-7.33 14.45 -8.04 15.14 -8.77 15.86 C-10.51 17.58 -12.25 19.29 -14 21 C-15.32 20.34 -16.64 19.68 -18 19 C-13.79 13.79 -9.23 9.4 -4.17 5.02 C-1.83 3 -1.83 3 0 0 Z " fill="#B8B9BB" transform="translate(523,709)"/>
<path d="M0 0 C1.81 2.56 1.81 2.56 3 5 C-3.49 5.26 -3.49 5.26 -6.81 3.56 C-10.94 2.83 -11.87 3.9 -15.25 6.25 C-17.66 8.07 -19.87 9.87 -22 12 C-22.33 10.35 -22.66 8.7 -23 7 C-16.13 1.61 -9.09 -3.64 0 0 Z " fill="#B4B5B7" transform="translate(492,520)"/>
<path d="M0 0 C0.33 0 0.66 0 1 0 C1.22 1.6 1.43 3.21 1.62 4.81 C1.74 5.71 1.86 6.6 1.98 7.52 C2 10 2 10 0 13 C-0.99 13 -1.98 13 -3 13 C-2.75 13.97 -2.5 14.94 -2.25 15.94 C-1.53 20.86 -3.51 24.83 -6 29 C-7.64 30.77 -7.64 30.77 -9 32 C-9.69 28.69 -9.69 28.69 -10 25 C-8.69 23.06 -8.69 23.06 -7 22 C-6.34 22 -5.68 22 -5 22 C-4.87 20.72 -4.73 19.45 -4.6 18.13 C-4.42 16.46 -4.24 14.79 -4.06 13.12 C-3.93 11.86 -3.93 11.86 -3.8 10.57 C-3.71 9.77 -3.62 8.96 -3.54 8.13 C-3.46 7.39 -3.38 6.65 -3.3 5.88 C-3 4 -3 4 -2 2 C-1.34 2 -0.68 2 0 2 C0 1.34 0 0.68 0 0 Z " fill="#686B6C" transform="translate(552,650)"/>
<path d="M0 0 C4.85 1.18 7.72 3.19 11.32 6.48 C12.79 7.81 14.36 9.04 15.94 10.25 C16.62 10.83 17.3 11.4 18 12 C18 12.66 18 13.32 18 14 C18.66 14 19.32 14 20 14 C20 14.66 20 15.32 20 16 C18.34 16.75 18.34 16.75 16 17 C9.87 13.12 4.2 7.93 0 2 C0 1.34 0 0.68 0 0 Z " fill="#B8B9BB" transform="translate(334,720)"/>
<path d="M0 0 C5.38 4.43 8.75 10.44 11 17 C10.66 20.38 10.66 20.38 10 23 C7 22 7 22 5.46 19.02 C4.94 17.76 4.44 16.51 3.94 15.25 C3.68 14.63 3.43 14.01 3.16 13.37 C2.43 11.58 1.71 9.79 1 8 C0.38 6.63 0.38 6.63 -0.25 5.23 C-1 3 -1 3 0 0 Z " fill="#787B7C" transform="translate(1038,563)"/>
<path d="M0 0 C3.21 3.67 5.05 7.07 6.75 11.62 C7.39 13.31 7.39 13.31 8.05 15.04 C9 18 9 18 9 21 C7.19 20.81 7.19 20.81 5 20 C1.79 15.85 -0.82 10.12 -2 5 C-1.11 2.19 -1.11 2.19 0 0 Z " fill="#B8B9BB" transform="translate(590,548)"/>
<path d="M0 0 C0.06 0.84 0.12 1.69 0.18 2.55 C0.27 3.65 0.35 4.75 0.44 5.88 C0.52 6.97 0.6 8.06 0.68 9.18 C0.83 11.95 0.83 11.95 2 14 C2.23 19.54 2.23 19.54 1 22 C0.77 24.04 0.59 26.08 0.44 28.12 C0.35 29.22 0.27 30.32 0.18 31.45 C0.12 32.29 0.06 33.13 0 34 C-0.99 33.67 -1.98 33.34 -3 33 C-3 22.44 -3 11.88 -3 1 C-1 0 -1 0 0 0 Z " fill="#494C4D" transform="translate(1108,623)"/>
<path d="M0 0 C2.5 1.77 3.83 3.22 4.49 6.25 C4.99 11.16 5.11 16.06 5 21 C4.01 21 3.02 21 2 21 C-0.23 17.66 -0.36 16.06 -0.62 12.12 C-0.7 11.1 -0.77 10.07 -0.85 9.01 C-0.98 6.33 -1.11 3.68 -1 1 C-0.67 0.67 -0.34 0.34 0 0 Z " fill="#939697" transform="translate(1050,593)"/>
<path d="M0 0 C2.69 0.31 2.69 0.31 5 1 C0.02 7.03 -5.42 12.52 -11 18 C-11.66 17.67 -12.32 17.34 -13 17 C-12.45 12.94 -10.36 10.87 -7.62 7.94 C-6.83 7.08 -6.04 6.22 -5.23 5.34 C-4.49 4.57 -3.76 3.8 -3 3 C-2.47 2.4 -1.93 1.79 -1.38 1.17 C-0.92 0.79 -0.47 0.4 0 0 Z " fill="#808384" transform="translate(227,488)"/>
<path d="M0 0 C0.5 0.64 0.99 1.28 1.5 1.94 C3.62 4.53 5.8 6.97 8.06 9.44 C11.07 12.78 13.1 15.9 15 20 C17.87 22.1 17.87 22.1 21 23 C21.33 23.99 21.66 24.98 22 26 C17.47 25.52 15.58 24.03 12.5 20.75 C11.72 19.93 10.95 19.11 10.14 18.27 C9.44 17.52 8.73 16.77 8 16 C7.07 15.15 6.14 14.31 5.19 13.44 C2.41 10.34 0.28 6.98 -1 3 C-0.67 2.01 -0.34 1.02 0 0 Z " fill="#4C4F50" transform="translate(316,695)"/>
<path d="M0 0 C0.33 0.99 0.66 1.98 1 3 C-0.31 5.19 -0.31 5.19 -2 7 C-2.66 7 -3.32 7 -4 7 C-4.37 7.86 -4.37 7.86 -4.75 8.73 C-6.18 11.34 -7.85 13.15 -9.94 15.25 C-10.63 15.96 -11.32 16.66 -12.03 17.39 C-14 19 -14 19 -17 19 C-17 16 -17 16 -15.38 14.25 C-14.59 13.51 -13.81 12.76 -13 12 C-11.43 10.15 -9.9 8.27 -8.37 6.39 C-7.92 5.93 -7.46 5.47 -7 5 C-6.34 5 -5.68 5 -5 5 C-4.73 4.36 -4.46 3.72 -4.19 3.06 C-3 1 -3 1 0 0 Z " fill="#7C7F80" transform="translate(570,767)"/>
<path d="M0 0 C0.66 0 1.32 0 2 0 C6.54 4.81 6.66 9.74 7.12 16.17 C7 19 7 19 5 21 C4.34 20.67 3.68 20.34 3 20 C0.94 13.48 -0.48 6.85 0 0 Z " fill="#8C8E90" transform="translate(599,574)"/>
<path d="M0 0 C1.65 0.99 3.3 1.98 5 3 C4.63 10.45 3.79 17.05 1 24 C0.34 24 -0.32 24 -1 24 C-1.17 15.96 -0.65 8.01 0 0 Z " fill="#B9BABC" transform="translate(554,631)"/>
<path d="M0 0 C0.33 0.66 0.66 1.32 1 2 C1.66 2 2.32 2 3 2 C1.53 5.54 -0.41 7.47 -3.31 9.94 C-5.96 12.21 -8.53 14.47 -10.94 17 C-13 19 -13 19 -15 19 C-15.4 16.85 -15.4 16.85 -15 14 C-12.91 11.9 -10.95 10.16 -8.62 8.38 C-3.84 4.65 -3.84 4.65 0 0 Z " fill="#7B7E7F" transform="translate(532,803)"/>
<path d="M0 0 C0 0.66 0 1.32 0 2 C0.59 2.1 1.18 2.2 1.79 2.3 C6.82 3.25 10.32 4.2 14 8 C14 8.66 14 9.32 14 10 C8.73 9.02 4.51 8.01 0 5 C-1.27 4.54 -1.27 4.54 -2.56 4.06 C-5.38 2.84 -6.96 1.27 -9 -1 C-5.38 -2.34 -3.43 -1.62 0 0 Z " fill="#BBBCBE" transform="translate(963,430)"/>
<path d="M0 0 C-1 3 -1 3 -3.51 4.61 C-4.56 5.13 -5.61 5.65 -6.69 6.19 C-7.72 6.72 -8.76 7.25 -9.82 7.79 C-13.13 9.05 -15.49 9.24 -19 9 C-19 8.01 -19 7.02 -19 6 C-16.9 5.02 -14.79 4.04 -12.69 3.06 C-10.93 2.24 -10.93 2.24 -9.14 1.41 C-3.45 -1.15 -3.45 -1.15 0 0 Z " fill="#A3A5A7" transform="translate(318,431)"/>
<path d="M0 0 C7.85 0.49 13.89 7.64 19 13 C18.67 13.66 18.34 14.32 18 15 C11.3 13.06 11.3 13.06 9 10 C9 9.34 9 8.68 9 8 C8.26 7.79 7.51 7.59 6.75 7.38 C3.21 5.6 1.98 3.37 0 0 Z " fill="#7E8082" transform="translate(516,459)"/>
<path d="M0 0 C0.99 0.33 1.98 0.66 3 1 C2.84 1.57 2.67 2.14 2.5 2.73 C1.99 5.03 1.93 6.96 2 9.31 C2.05 13.33 1.67 17.04 1 21 C0.34 20.67 -0.32 20.34 -1 20 C-1 19.34 -1 18.68 -1 18 C-1.99 18 -2.98 18 -4 18 C-3.72 15.56 -3.42 13.12 -3.12 10.69 C-3.05 10 -2.97 9.31 -2.89 8.6 C-2.44 5.04 -2.02 3.03 0 0 Z " fill="#848788" transform="translate(1053,631)"/>
<path d="M0 0 C2.83 0.88 4.81 2.04 7.23 3.75 C7.98 4.27 8.74 4.8 9.52 5.34 C10.2 5.82 10.89 6.31 11.6 6.81 C12.59 7.47 13.58 8.13 14.6 8.81 C14.27 9.8 13.94 10.79 13.6 11.81 C9.1 11.29 7.06 9.64 3.6 6.81 C0.65 5.06 -2.37 3.42 -5.4 1.81 C-2.4 -0.19 -2.4 -0.19 0 0 Z " fill="#B5B6B8" transform="translate(982.3984375,503.19140625)"/>
<path d="M0 0 C-1.5 3.78 -3.67 5.56 -6.88 8 C-10.15 10.5 -13.15 13.03 -16 16 C-16.66 15.67 -17.32 15.34 -18 15 C-18 14.01 -18 13.02 -18 12 C-16.36 10.63 -14.69 9.31 -13 8 C-12.34 7.15 -11.68 6.31 -11 5.44 C-7.67 1.38 -5.26 0 0 0 Z " fill="#606364" transform="translate(261,460)"/>
<path d="M0 0 C0.33 0 0.66 0 1 0 C2.74 13.91 2.74 13.91 -1 20 C-1.66 20.33 -2.32 20.66 -3 21 C-4.33 13.63 -3.54 8.05 -1 1 C-0.67 0.67 -0.34 0.34 0 0 Z " fill="#8E9192" transform="translate(604,681)"/>
<path d="M0 0 C3.54 1.42 4.34 2.68 6 6 C6.66 6.33 7.32 6.66 8 7 C10.53 8.26 10.76 9.53 12 12 C13.33 12.68 14.66 13.35 16 14 C16.33 14.99 16.66 15.98 17 17 C11.95 15.5 8.89 12.43 5.19 8.88 C4.59 8.31 3.99 7.75 3.38 7.17 C1.91 5.79 0.46 4.39 -1 3 C-0.67 2.01 -0.34 1.02 0 0 Z " fill="#848687" transform="translate(240,799)"/>
<path d="M0 0 C5.9 4.02 7.79 8.3 10 15 C9.01 15.66 8.02 16.32 7 17 C2.96 12.51 0.56 7.41 -2 2 C-1.34 1.34 -0.68 0.68 0 0 Z " fill="#B8B9BB" transform="translate(185,722)"/>
<path d="M0 0 C0.33 0.66 0.66 1.32 1 2 C1.66 2.33 2.32 2.66 3 3 C2.01 3 1.02 3 0 3 C0 3.66 0 4.32 0 5 C-0.78 5.12 -1.57 5.25 -2.38 5.38 C-5.14 5.79 -5.14 5.79 -7 8 C-9.38 8.2 -9.38 8.2 -12.12 8.12 C-13.49 8.1 -13.49 8.1 -14.88 8.07 C-15.58 8.05 -16.28 8.02 -17 8 C-12.56 2.14 -6.99 1.37 0 0 Z " fill="#808384" transform="translate(951,848)"/>
<path d="M0 0 C4.06 0.47 7.47 0.88 11 3 C11 3.66 11 4.32 11 5 C15.95 5 20.9 5 26 5 C26 5.33 26 5.66 26 6 C22.65 6.09 19.29 6.14 15.94 6.19 C14.99 6.21 14.05 6.24 13.08 6.26 C7.23 6.32 3.19 5.74 -2 3 C-1.34 2.01 -0.68 1.02 0 0 Z " fill="#4E5152" transform="translate(886,748)"/>
<path d="M0 0 C4.88 2.75 4.88 2.75 6 5 C6.07 7.21 6.08 9.42 6.06 11.62 C6.05 12.81 6.04 14 6.04 15.23 C6.02 16.14 6.01 17.06 6 18 C5.34 18 4.68 18 4 18 C1.42 11.95 0.39 6.56 0 0 Z " fill="#7D8081" transform="translate(1100,591)"/>
<path d="M0 0 C0.99 0.66 1.98 1.32 3 2 C1.67 4.67 0.33 7.33 -1 10 C-1.99 10 -2.98 10 -4 10 C-4.25 10.58 -4.5 11.15 -4.75 11.75 C-6.17 14.3 -7.88 16.02 -10 18 C-8.51 10.99 -5.09 5.09 0 0 Z " fill="#7E8182" transform="translate(317,545)"/>
<path d="M0 0 C0 0.33 0 0.66 0 1 C-13.61 4.52 -13.61 4.52 -18 3 C-18.33 3.66 -18.66 4.32 -19 5 C-21.88 5.75 -21.88 5.75 -25 6 C-25.99 5.34 -26.98 4.68 -28 4 C-26.55 3.88 -26.55 3.88 -25.06 3.75 C-21.9 3.33 -19.62 2.36 -16.81 0.88 C-11.22 -1.82 -5.98 -0.93 0 0 Z " fill="#727576" transform="translate(347,424)"/>
<path d="M0 0 C4.28 2.51 6.65 4.12 8 9 C8.66 9 9.32 9 10 9 C10 9.66 10 10.32 10 11 C10.99 11.33 11.98 11.66 13 12 C13 12.66 13 13.32 13 14 C13.99 14.33 14.98 14.66 16 15 C15.67 16.32 15.34 17.64 15 19 C10.14 16.94 7.74 13.39 5 9 C4.31 7.01 3.64 5.01 3 3 C2.01 2.67 1.02 2.34 0 2 C0 1.34 0 0.68 0 0 Z " fill="#808384" transform="translate(210,768)"/>
<path d="M0 0 C2.48 2.48 2.55 3.95 3.12 7.38 C3.29 8.33 3.46 9.29 3.63 10.27 C4 13 4 13 4 17 C3.01 17 2.02 17 1 17 C1 16.34 1 15.68 1 15 C0.34 15 -0.32 15 -1 15 C-3.01 10.98 -2.22 6.74 -1 2.56 C-0.67 1.72 -0.34 0.87 0 0 Z " fill="#515455" transform="translate(170,663)"/>
<path d="M0 0 C0.33 0 0.66 0 1 0 C1.25 0.87 1.5 1.73 1.75 2.62 C2.87 6.09 2.87 6.09 5.12 9.06 C7.08 12.13 7.42 13.46 7 17 C-0.3 12.3 -0.3 12.3 -2 10 C-1.86 7.52 -1.86 7.52 -1.19 4.81 C-0.97 3.91 -0.76 3.01 -0.54 2.08 C-0.36 1.39 -0.18 0.71 0 0 Z " fill="#B8B9BB" transform="translate(965,536)"/>
<path d="M0 0 C1.87 0.27 1.87 0.27 4 1 C5.2 2.67 5.2 2.67 6.12 4.75 C6.45 5.47 6.78 6.19 7.11 6.93 C7.41 7.62 7.7 8.3 8 9 C8.43 9.93 8.87 10.86 9.31 11.81 C10 14 10 14 9 17 C8.35 16.04 8.35 16.04 7.69 15.06 C6.09 12.73 6.09 12.73 3 12 C2.05 9.79 2.05 9.79 1.31 7.06 C1.06 6.17 0.81 5.27 0.55 4.35 C0 2 0 2 0 0 Z " fill="#808384" transform="translate(179,710)"/>
<path d="M0 0 C0.66 0 1.32 0 2 0 C2.05 1.42 2.09 2.83 2.12 4.25 C2.15 5.04 2.17 5.83 2.2 6.64 C1.98 9.21 1.29 10.79 0 13 C-0.66 13 -1.32 13 -2 13 C-2 13.66 -2 14.32 -2 15 C-2.66 15 -3.32 15 -4 15 C-4.69 6.4 -4.69 6.4 -2.12 2.44 C-1.07 1.23 -1.07 1.23 0 0 Z " fill="#787B7C" transform="translate(1099,695)"/>
<path d="M0 0 C3.62 1.19 3.62 1.19 7 3 C7.33 3.99 7.66 4.98 8 6 C2.67 7.26 -2.65 7.16 -8 6 C-8.33 5.34 -8.66 4.68 -9 4 C-7.02 4 -5.04 4 -3 4 C-3 3.34 -3 2.68 -3 2 C-2.01 1.34 -1.02 0.68 0 0 Z " fill="#B7B8BA" transform="translate(983,518)"/>
<path d="M0 0 C0.33 0.99 0.66 1.98 1 3 C-4.77 4.3 -7.73 3.54 -13 1 C-15.78 0.31 -15.78 0.31 -18 0 C-18 -0.33 -18 -0.66 -18 -1 C-4.41 -3.22 -4.41 -3.22 0 0 Z " fill="#818485" transform="translate(450,425)"/>
<path d="M0 0 C0.99 0.33 1.98 0.66 3 1 C0.11 11.56 0.11 11.56 -3 16 C-3.66 15.67 -4.32 15.34 -5 15 C-4.72 8.8 -3.89 4.9 0 0 Z " fill="#B8B9BB" transform="translate(188,548)"/>
<path d="M0 0 C2.06 2.5 2.06 2.5 3 5 C-0.48 6.21 -2.65 5.78 -6.12 4.69 C-6.99 4.42 -7.86 4.16 -8.76 3.89 C-11 3 -11 3 -13 1 C-8.69 -0.2 -4.44 -0.79 0 0 Z " fill="#848788" transform="translate(945,423)"/>
<path d="M0 0 C0.79 0.01 1.57 0.01 2.38 0.02 C3.55 0.01 3.55 0.01 4.75 0 C6.94 0.27 6.94 0.27 9.94 2.27 C8.38 2.94 6.82 3.61 5.25 4.27 C3.95 4.82 3.95 4.82 2.62 5.39 C-0.12 6.28 -2.21 6.43 -5.06 6.27 C-4.38 2.87 -3.85 0.5 0 0 Z " fill="#797C7D" transform="translate(831.05859375,422.734375)"/>
<path d="M0 0 C3.48 3.21 5.28 5.65 7 10 C8.32 11.01 9.66 12.01 11 13 C11 13.99 11 14.98 11 16 C7.46 14.51 5.27 12.5 2.69 9.69 C1.97 8.93 1.25 8.17 0.51 7.39 C-1 5 -1 5 -0.73 2.21 C-0.49 1.48 -0.25 0.75 0 0 Z " fill="#7F8283" transform="translate(560,498)"/>
<path d="M0 0 C1.5 1.18 1.5 1.18 3 3 C3.21 5.41 3.21 5.41 2.94 8.06 C2.86 8.94 2.79 9.82 2.71 10.72 C2 13 2 13 -0.06 14.31 C-0.7 14.54 -1.34 14.76 -2 15 C-3.61 9.29 -2.09 5.31 0 0 Z " fill="#828586" transform="translate(1103,674)"/>
<path d="M0 0 C0.33 0 0.66 0 1 0 C1.57 12.03 1.57 12.03 -2 16 C-2.99 16.33 -3.98 16.66 -5 17 C-6.16 12.95 -5.84 10.78 -4 7 C-2.68 7 -1.36 7 0 7 C0 4.69 0 2.38 0 0 Z " fill="#4D5051" transform="translate(673,580)"/>
<path d="M0 0 C6.16 0.93 11.61 1.79 17 5 C17 5.66 17 6.32 17 7 C12.71 6.67 8.42 6.34 4 6 C5 4 5 4 6 3 C4.35 3 2.7 3 1 3 C0.67 2.01 0.34 1.02 0 0 Z " fill="#7F8183" transform="translate(824,849)"/>
<path d="M0 0 C0.68 0.12 1.36 0.25 2.06 0.38 C0.48 4.73 -1.04 6.74 -5.12 8.75 C-6.39 9.31 -7.66 9.86 -8.94 10.38 C-9.27 9.05 -9.6 7.74 -9.94 6.38 C-3.86 0.49 -3.86 0.49 0 0 Z " fill="#7C7F80" transform="translate(346.9375,515.625)"/>
<path d="M0 0 C2.5 1.06 2.5 1.06 5 3 C5.42 6.88 5.19 10.28 4 14 C3.01 13.67 2.02 13.34 1 13 C-0.32 10.36 -0.1 8.32 -0.06 5.38 C-0.05 4.37 -0.04 3.37 -0.04 2.34 C-0.02 1.57 -0.01 0.79 0 0 Z " fill="#B8B9BB" transform="translate(554,605)"/>
<path d="M0 0 C2.69 0.12 2.69 0.12 5 1 C5.33 1.66 5.66 2.32 6 3 C0.71 5.59 -3.58 6.5 -9.44 6.69 C-10.53 6.74 -10.53 6.74 -11.65 6.79 C-13.44 6.87 -15.22 6.94 -17 7 C-17.33 6.34 -17.66 5.68 -18 5 C-17.04 4.97 -16.07 4.95 -15.08 4.92 C-13.81 4.87 -12.55 4.81 -11.25 4.75 C-10 4.7 -8.74 4.66 -7.45 4.61 C-3.53 3.92 -2.56 2.91 0 0 Z " fill="#555859" transform="translate(954,748)"/>
<path d="M0 0 C3.1 1.38 5.28 2.99 7.69 5.38 C8.29 5.96 8.89 6.55 9.51 7.15 C11.1 9.13 11.59 10.52 12 13 C8.56 11.47 5.81 9.5 3 7 C3 6.34 3 5.68 3 5 C1.68 4.34 0.36 3.68 -1 3 C-0.67 2.01 -0.34 1.02 0 0 Z " fill="#9C9E9F" transform="translate(501,514)"/>
<path d="M0 0 C1.96 0.09 3.92 0.2 5.88 0.31 C7.51 0.4 7.51 0.4 9.18 0.49 C10.11 0.66 11.04 0.83 12 1 C12.66 1.99 13.32 2.98 14 4 C13.67 4.99 13.34 5.98 13 7 C11.99 6.53 10.98 6.05 9.94 5.56 C6.34 4.01 2.91 3.4 -1 3 C-0.67 2.01 -0.34 1.02 0 0 Z " fill="#787B7C" transform="translate(323,849)"/>
<path d="M0 0 C-0.33 1.32 -0.66 2.64 -1 4 C-2.44 4.08 -3.87 4.14 -5.31 4.19 C-6.51 4.24 -6.51 4.24 -7.74 4.29 C-10.48 3.94 -11.29 3.11 -13 1 C-8.24 -0.97 -5.04 -1.01 0 0 Z " fill="#828586" transform="translate(448,852)"/>
<path d="M0 0 C0 3.63 0 7.26 0 11 C-0.99 11.5 -0.99 11.5 -2 12 C-2.33 10.68 -2.66 9.36 -3 8 C-3.66 8 -4.32 8 -5 8 C-5.33 6.35 -5.66 4.7 -6 3 C-2.25 0 -2.25 0 0 0 Z " fill="#66696A" transform="translate(469,536)"/>
<path d="M0 0 C1.96 0.23 1.96 0.23 4.38 0.75 C5.56 0.99 5.56 0.99 6.77 1.23 C9.22 2.08 10.34 3.05 12 5 C11.67 5.99 11.34 6.98 11 8 C9.56 7.4 8.12 6.8 6.69 6.19 C5.49 5.68 5.49 5.68 4.26 5.17 C2.03 4.02 0.65 2.86 -1 1 C-0.67 0.67 -0.34 0.34 0 0 Z " fill="#B2B3B5" transform="translate(468,433)"/>
<path d="M0 0 C2.34 2.13 3.84 4.04 5 7 C5 8.32 5 9.64 5 11 C2.83 10.49 1 10 -1 9 C-1.75 6.12 -1.75 6.12 -2 3 C-1.34 2.01 -0.68 1.02 0 0 Z " fill="#7E8182" transform="translate(1096,569)"/>
<path d="M0 0 C0.52 0.27 1.03 0.54 1.56 0.81 C4.17 2.12 4.17 2.12 7.69 3.44 C8.78 3.95 9.87 4.47 11 5 C11.33 5.99 11.66 6.98 12 8 C12.99 8.33 13.98 8.66 15 9 C13.29 9.67 13.29 9.67 11 10 C8.71 8.93 8.71 8.93 6.38 7.31 C5.6 6.79 4.82 6.27 4.02 5.74 C1.93 3.94 1.03 2.53 0 0 Z " fill="#B3B4B6" transform="translate(745,808)"/>
<path d="M0 0 C0.81 1.69 0.81 1.69 1 4 C-1.12 6.81 -1.12 6.81 -4 9 C-6.81 8.81 -6.81 8.81 -9 8 C-8.07 6.85 -7.13 5.7 -6.19 4.56 C-5.67 3.92 -5.14 3.29 -4.61 2.63 C-3 1 -3 1 0 0 Z " fill="#B4B5B7" transform="translate(757,460)"/>
<path d="M0 0 C0.91 0.01 1.82 0.02 2.76 0.03 C3.46 0.04 4.16 0.05 4.88 0.06 C4.21 1.38 3.56 2.7 2.88 4.06 C-0.43 4.06 -3.73 4.06 -7.12 4.06 C-7.12 3.07 -7.12 2.08 -7.12 1.06 C-4.6 -0.2 -2.81 -0.04 0 0 Z " fill="#BABBBD" transform="translate(437.125,753.9375)"/>
<path d="M0 0 C4.09 0.86 5.26 3.24 7.69 6.56 C5.69 7.56 5.69 7.56 3.3 6.79 C2.4 6.4 1.49 6.02 0.56 5.62 C-0.35 5.24 -1.26 4.86 -2.2 4.47 C-2.89 4.17 -3.59 3.87 -4.31 3.56 C-2.31 0.56 -2.31 0.56 0 0 Z " fill="#4D5051" transform="translate(389.3125,746.4375)"/>
<path d="M0 0 C2.5 1.56 2.5 1.56 5 4 C5.31 7.75 5.31 7.75 5 11 C2.53 9.85 0.95 8.95 -1 7 C-0.62 3.38 -0.62 3.38 0 0 Z " fill="#888A8B" transform="translate(674,699)"/>
<path d="M0 0 C1.32 0 2.64 0 4 0 C3.42 4.75 1.45 7.97 -1 12 C-1.66 11.34 -2.32 10.68 -3 10 C-2.67 6.24 -1.88 3.26 0 0 Z " fill="#505354" transform="translate(1041,672)"/>
<path d="M0 0 C0.66 0 1.32 0 2 0 C3.2 6.23 2.93 9.37 0 15 C-0.33 15 -0.66 15 -1 15 C-2.52 4.44 -2.52 4.44 0 0 Z " fill="#86898A" transform="translate(608,657)"/>
<path d="M0 0 C0.66 0.33 1.32 0.66 2 1 C1.69 2.46 1.38 3.92 1.06 5.38 C0.89 6.19 0.71 7 0.54 7.84 C0 10 0 10 -1 12 C-3.06 12.62 -3.06 12.62 -5 13 C-4.55 7.37 -3.32 4.39 0 0 Z " fill="#ACADAF" transform="translate(592,719)"/>
<path d="M0 0 C0.33 0 0.66 0 1 0 C1.49 7.38 1.49 7.38 -1 10.5 C-1.66 11 -2.32 11.49 -3 12 C-5.22 6.58 -5.22 6.58 -4.12 3.62 C-3.75 3.09 -3.38 2.55 -3 2 C-2.34 2 -1.68 2 -1 2 C-0.67 1.34 -0.34 0.68 0 0 Z " fill="#888B8C" transform="translate(678,569)"/>
<path d="M0 0 C3.48 1.88 6.08 3.48 8 7 C7.57 9.13 7.57 9.13 7 11 C0.14 5.91 0.14 5.91 -0.44 2.12 C-0.22 1.07 -0.22 1.07 0 0 Z " fill="#B8B9BB" transform="translate(1015,528)"/>
<path d="M0 0 C1.32 0.66 2.64 1.32 4 2 C2.02 4.31 0.04 6.62 -2 9 C-3.32 8.01 -4.64 7.02 -6 6 C-4 4 -2 2 0 0 Z " fill="#B8B9BB" transform="translate(1001,727)"/>
<path d="M0 0 C1.32 0.33 2.64 0.66 4 1 C2.84 4.91 1.64 7.87 -1 11 C-1.66 10.34 -2.32 9.68 -3 9 C-2.68 5.19 -2.14 3.22 0 0 Z " fill="#A3A4A6" transform="translate(1091,715)"/>
<path d="M0 0 C0.66 0 1.32 0 2 0 C2.33 4.24 2.44 6.36 0 9.94 C-0.66 10.62 -1.32 11.3 -2 12 C-3.19 9.88 -3.19 9.88 -4 7 C-1.97 1.97 -1.97 1.97 0 0 Z " fill="#828586" transform="translate(177,578)"/>
<path d="M0 0 C0.99 0.33 1.98 0.66 3 1 C3 1.66 3 2.32 3 3 C3.6 3.23 4.2 3.45 4.81 3.69 C7.59 5.36 8.56 7.13 10 10 C10 10.66 10 11.32 10 12 C9.34 12 8.68 12 8 12 C8 11.34 8 10.68 8 10 C7.42 9.77 6.85 9.55 6.25 9.31 C3.38 7.64 1.86 5.73 0 3 C0 2.01 0 1.02 0 0 Z " fill="#A9AAAC" transform="translate(706,766)"/>
<path d="M0 0 C2.97 2.45 3.56 4.45 4.19 8.19 C4.35 9.09 4.5 9.99 4.67 10.92 C4.83 11.95 4.83 11.95 5 13 C1.16 12.2 1.16 12.2 -0.31 10.44 C-1.35 6.76 -0.63 3.75 0 0 Z " fill="#828586" transform="translate(669,678)"/>
<path d="M0 0 C3.29 3.11 5.84 6.02 8 10 C3.62 8.8 0.85 7.61 -2 4 C-2 3.01 -2 2.02 -2 1 C-1.34 0.67 -0.68 0.34 0 0 Z " fill="#AFB0B2" transform="translate(1057,499)"/>
<path d="M0 0 C0.66 0 1.32 0 2 0 C4.43 3.64 4.16 5.71 4 10 C3.01 9.67 2.02 9.34 1 9 C1 8.01 1 7.02 1 6 C0.34 6 -0.32 6 -1 6 C-1.62 4.12 -1.62 4.12 -2 2 C-1.34 1.34 -0.68 0.68 0 0 Z " fill="#BFC0C2" transform="translate(300,670)"/>
<path d="M0 0 C0.66 0 1.32 0 2 0 C2 0.66 2 1.32 2 2 C3.13 2.27 4.27 2.54 5.44 2.81 C6.61 3.2 7.79 3.6 9 4 C9.33 4.99 9.66 5.98 10 7 C10.66 7 11.32 7 12 7 C12 7.66 12 8.32 12 9 C6.81 8.69 3.41 5.7 0 2 C0 1.34 0 0.68 0 0 Z " fill="#B5B6B8" transform="translate(1015,461)"/>
<path d="M0 0 C1.11 0.56 1.11 0.56 2.25 1.12 C2.25 2.12 2.25 3.11 2.25 4.12 C2.91 4.45 3.57 4.79 4.25 5.12 C2.48 5.78 2.48 5.78 0.25 6.12 C-1.67 5.13 -1.67 5.13 -3.5 3.69 C-4.11 3.21 -4.73 2.74 -5.36 2.25 C-5.82 1.88 -6.28 1.51 -6.75 1.12 C-4.02 -0.69 -3.21 -1.02 0 0 Z " fill="#878A8B" transform="translate(960.75,428.875)"/>
<path d="M0 0 C0.33 0 0.66 0 1 0 C1.33 3.3 1.66 6.6 2 10 C1.01 10.5 1.01 10.5 0 11 C0 10.34 0 9.68 0 9 C-0.99 9.33 -1.98 9.66 -3 10 C-3.12 4.25 -3.12 4.25 -2 2 C-1.34 2 -0.68 2 0 2 C0 1.34 0 0.68 0 0 Z " fill="#535657" transform="translate(552,650)"/>
<path d="M0 0 C0.66 0 1.32 0 2 0 C2.2 2.02 2.39 4.04 2.59 6.05 C2.86 8.23 2.86 8.23 5 10 C5 10.99 5 11.98 5 13 C4.01 13.33 3.02 13.66 2 14 C-0.28 10.58 -0.22 9.32 -0.12 5.31 C-0.11 4.32 -0.09 3.32 -0.07 2.3 C-0.05 1.54 -0.02 0.78 0 0 Z " fill="#424546" transform="translate(1100,580)"/>
<path d="M0 0 C2.75 0.52 3.99 0.24 6.62 -0.5 C8.29 -0.54 9.96 -0.55 11.62 -0.5 C8.42 1.64 6.51 2.03 2.75 2.62 C1.21 2.88 1.21 2.88 -0.37 3.13 C-3.08 3.46 -5.65 3.57 -8.38 3.5 C-2.99 -0.63 -2.99 -0.63 0 0 Z " fill="#848788" transform="translate(358.375,420.5)"/>
<path d="M0 0 C1.67 0.34 3.33 0.68 5 1 C5 1.33 5 1.66 5 2 C-1.62 4 -1.62 4 -5 4 C-5 3.34 -5 2.68 -5 2 C-6.98 2 -8.96 2 -11 2 C-6.95 -0.09 -4.46 -1.31 0 0 Z " fill="#5B5E5F" transform="translate(987,555)"/>
<path d="M0 0 C-1.47 3.86 -3.45 5.05 -7 7 C-7.66 7.66 -8.32 8.32 -9 9 C-9.33 7.35 -9.66 5.7 -10 4 C-3.38 0 -3.38 0 0 0 Z " fill="#BDBEC0" transform="translate(479,523)"/>
<path d="M0 0 C0 0.66 0 1.32 0 2 C0.99 2.33 1.98 2.66 3 3 C1.71 3.36 0.42 3.71 -0.88 4.06 C-1.95 4.36 -1.95 4.36 -3.05 4.66 C-5 5 -5 5 -7 4 C-7 3.01 -7 2.02 -7 1 C-3.38 -1.12 -3.38 -1.12 0 0 Z " fill="#B8B9BB" transform="translate(959,846)"/>
<path d="M0 0 C1.88 1.56 1.88 1.56 3 3 C2.01 3 1.02 3 0 3 C-0.33 3.66 -0.66 4.32 -1 5 C-4.33 3.33 -7.67 1.67 -11 0 C-7.02 -1.05 -3.99 -1.04 0 0 Z " fill="#9B9D9E" transform="translate(814,844)"/>
<path d="M0 0 C2.31 2.31 2.5 3.48 3.12 6.62 C3.29 7.44 3.46 8.26 3.63 9.1 C3.81 10.04 3.81 10.04 4 11 C2.09 10.64 2.09 10.64 0 10 C-1.38 7.75 -1.38 7.75 -2 5 C-1.12 2.19 -1.12 2.19 0 0 Z " fill="#808384" transform="translate(175,689)"/>
<path d="M0 0 C3.16 1.37 3.99 1.99 6 5 C5.62 7.19 5.62 7.19 5 9 C4.34 9 3.68 9 3 9 C0.78 6.7 0.03 5.48 -0.19 2.25 C-0.13 1.51 -0.06 0.76 0 0 Z " fill="#969899" transform="translate(804,685)"/>
<path d="M0 0 C2.44 1.06 2.44 1.06 5 3 C5.81 6.69 5.81 6.69 6 10 C5.01 10 4.02 10 3 10 C0.7 6.56 0.46 4.06 0 0 Z " fill="#7E8182" transform="translate(548,583)"/>
<path d="M0 0 C0.99 0.66 1.98 1.32 3 2 C0.75 4.56 0.75 4.56 -2 7 C-4.31 6.81 -4.31 6.81 -6 6 C-4.95 3.38 -4.35 2.21 -1.88 0.75 C-1.26 0.5 -0.64 0.25 0 0 Z " fill="#B8B9BB" transform="translate(1024,809)"/>
<path d="M0 0 C-2.42 2.42 -3.64 2.61 -7 3 C-9.81 2.56 -9.81 2.56 -12 2 C-12 1.34 -12 0.68 -12 0 C-7.22 -2.05 -4.78 -2.05 0 0 Z " fill="#4B4E4F" transform="translate(466,749)"/>
<path d="M0 0 C0.66 0 1.32 0 2 0 C2 4.95 2 9.9 2 15 C1.34 15 0.68 15 0 15 C-1.1 11.59 -0.94 8.79 -0.56 5.25 C-0.46 4.27 -0.36 3.28 -0.25 2.27 C-0.17 1.52 -0.09 0.77 0 0 Z " fill="#3B3E3F" transform="translate(1105,662)"/>
<path d="M0 0 C0.66 0 1.32 0 2 0 C3.19 2.25 3.19 2.25 4 5 C2.75 7.31 2.75 7.31 1 9 C0.34 9 -0.32 9 -1 9 C-1.1 2.85 -1.1 2.85 -1 1 C-0.67 0.67 -0.34 0.34 0 0 Z " fill="#BDBEC0" transform="translate(1050,649)"/>
<path d="M0 0 C0.89 0.1 1.78 0.2 2.7 0.31 C3.38 0.39 4.05 0.48 4.75 0.56 C4.75 0.89 4.75 1.22 4.75 1.56 C-2.68 3.71 -2.68 3.71 -6.25 4.56 C-6.58 3.57 -6.91 2.58 -7.25 1.56 C-7.91 1.23 -8.57 0.9 -9.25 0.56 C-5.98 -0.47 -3.39 -0.4 0 0 Z " fill="#4B4E4F" transform="translate(455.25,850.4375)"/>
<path d="M0 0 C2.12 0.94 2.12 0.94 4 2 C3.67 2.66 3.34 3.32 3 4 C2.34 4 1.68 4 1 4 C1 4.66 1 5.32 1 6 C-0.98 6 -2.96 6 -5 6 C-2.25 1.12 -2.25 1.12 0 0 Z " fill="#4F5253" transform="translate(979,516)"/>
<path d="M0 0 C6.7 4.78 6.7 4.78 7.94 9.88 C7.96 10.91 7.98 11.94 8 13 C7.01 12.67 6.02 12.34 5 12 C4.9 11.22 4.79 10.43 4.69 9.62 C4.22 6.67 4.22 6.67 1 5 C0.31 2.38 0.31 2.38 0 0 Z " fill="#474A4B" transform="translate(565,503)"/>
<path d="M0 0 C0.66 0.66 1.32 1.32 2 2 C2.66 1.34 3.32 0.68 4 0 C5.27 3.87 5.11 7.73 5.06 11.75 C5.06 12.45 5.05 13.14 5.05 13.86 C5.04 15.58 5.02 17.29 5 19 C4.67 19 4.34 19 4 19 C4 14.71 4 10.42 4 6 C3.34 6 2.68 6 2 6 C2 5.34 2 4.68 2 4 C1.34 4 0.68 4 0 4 C0 2.68 0 1.36 0 0 Z " fill="#4A4D4E" transform="translate(549,590)"/>
<path d="M0 0 C0 0.99 0 1.98 0 3 C-3.3 3 -6.6 3 -10 3 C-10 2.34 -10 1.68 -10 1 C-6.15 -1.57 -4.41 -0.83 0 0 Z " fill="#525556" transform="translate(347,854)"/>
<path d="M0 0 C0.33 0.66 0.66 1.32 1 2 C1.66 2.33 2.32 2.66 3 3 C2.01 3 1.02 3 0 3 C0 3.66 0 4.32 0 5 C-1.81 5.62 -1.81 5.62 -4 6 C-4.99 5.34 -5.98 4.68 -7 4 C-7 3.34 -7 2.68 -7 2 C-4.69 1.34 -2.38 0.68 0 0 Z " fill="#5C5F60" transform="translate(951,848)"/>
<path d="M0 0 C0.66 0.33 1.32 0.66 2 1 C2 1.66 2 2.32 2 3 C2.66 3 3.32 3 4 3 C4 4.98 4 6.96 4 9 C1.52 8.01 1.52 8.01 -1 7 C-0.67 4.69 -0.34 2.38 0 0 Z " fill="#B8B9BB" transform="translate(795,661)"/>
<path d="M0 0 C3.78 1.09 6.47 1.91 9 5 C8.67 5.66 8.34 6.32 8 7 C5.12 6.31 5.12 6.31 2 5 C0.62 2.38 0.62 2.38 0 0 Z " fill="#848687" transform="translate(334,720)"/>
<path d="M0 0 C0.66 0.33 1.32 0.66 2 1 C1.39 5.34 0.74 9.68 0 14 C-0.99 13.67 -1.98 13.34 -3 13 C-2.86 12.44 -2.71 11.88 -2.57 11.3 C-1.99 8.95 -1.46 6.61 -0.94 4.25 C-0.76 3.45 -0.58 2.65 -0.4 1.83 C-0.27 1.22 -0.14 0.62 0 0 Z " fill="#555859" transform="translate(667,618)"/>
<path d="M0 0 C2.97 0 5.94 0 9 0 C9 0.66 9 1.32 9 2 C8.34 2 7.68 2 7 2 C6.67 2.99 6.34 3.98 6 5 C3.69 4.01 1.38 3.02 -1 2 C-0.67 1.34 -0.34 0.68 0 0 Z " fill="#636667" transform="translate(479,555)"/>
<path d="M0 0 C0.99 0.66 1.98 1.32 3 2 C1 5 1 5 -1.44 5.69 C-4 6 -4 6 -7 6 C-6.34 5.67 -5.68 5.34 -5 5 C-4.54 4.01 -4.54 4.01 -4.06 3 C-3 1 -3 1 0 0 Z " fill="#969799" transform="translate(860,504)"/>
<path d="M0 0 C0.99 0 1.98 0 3 0 C2.81 2.38 2.81 2.38 2 5 C-0.56 6.31 -0.56 6.31 -3 7 C-2.25 2.25 -2.25 2.25 0 0 Z " fill="#A5A7A8" transform="translate(713,502)"/>
<path d="M0 0 C0.33 0.99 0.66 1.98 1 3 C-0.44 5.19 -0.44 5.19 -2 7 C-3.32 6.34 -4.64 5.68 -6 5 C-2.25 1.12 -2.25 1.12 0 0 Z " fill="#505354" transform="translate(570,767)"/>
<path d="M0 0 C0.66 0.33 1.32 0.66 2 1 C2 3.64 2 6.28 2 9 C1.01 9.5 1.01 9.5 0 10 C-0.99 8.68 -1.98 7.36 -3 6 C-2.67 5.34 -2.34 4.68 -2 4 C-1.34 4 -0.68 4 0 4 C0 2.68 0 1.36 0 0 Z " fill="#5C5F60" transform="translate(667,655)"/>
<path d="M0 0 C0.99 0.33 1.98 0.66 3 1 C3.25 8.62 3.25 8.62 1 12 C0.67 8.04 0.34 4.08 0 0 Z " fill="#4E5152" transform="translate(172,586)"/>
<path d="M0 0 C1.32 1.32 2.64 2.64 4 4 C2.68 5.65 1.36 7.3 0 9 C-1.12 6.19 -1.12 6.19 -2 3 C-1.34 2.01 -0.68 1.02 0 0 Z " fill="#B2B3B5" transform="translate(800,566)"/>
</svg>
